<svg width="115" height="14" viewBox="0 0 115 14" fill="none" xmlns="http://www.w3.org/2000/svg">
<path d="M45.5745 13.0405C42.2602 13.0405 39.5635 11.0871 39.5635 8.68578C39.5635 8.00858 39.7777 7.3444 40.1851 6.74634C39.7777 6.14827 39.5635 5.48409 39.5635 4.80689C39.5635 2.40562 42.2602 0.452148 45.5745 0.452148C48.8889 0.452148 51.5856 2.40562 51.5856 4.80689C51.5856 5.48409 51.3714 6.14827 50.964 6.74634C51.3714 7.3444 51.5856 8.00858 51.5856 8.68578C51.5856 11.0871 48.8889 13.0405 45.5745 13.0405ZM45.5745 1.33071C42.7437 1.33071 40.4414 2.89048 40.4414 4.80789C40.4414 5.38692 40.6596 5.96194 41.073 6.46984L41.2982 6.74734L41.073 7.02383C40.6596 7.53173 40.4414 8.10675 40.4414 8.68578C40.4414 10.6032 42.7447 12.163 45.5745 12.163C48.4044 12.163 50.7077 10.6032 50.7077 8.68578C50.7077 8.10675 50.4895 7.53173 50.0761 7.02383L49.8509 6.74634L50.0761 6.46884C50.4895 5.96094 50.7077 5.38592 50.7077 4.80689C50.7077 2.88948 48.4044 1.32971 45.5745 1.32971V1.33071Z" fill="white"/>
<path d="M88.0029 12.6572V0.845215H96.2152C98.8639 0.845215 99.93 2.81972 99.93 4.56282C99.93 5.93226 99.2192 7.48001 97.4414 7.99592C97.4414 8.01396 97.4595 8.01396 97.4595 8.03199L100.268 12.6572H96.6777L93.976 8.17424H91.1851V12.6572H88.0029ZM91.1841 5.31015H96.2142C96.5515 5.31015 96.7477 5.06071 96.7477 4.67001V4.34944C96.7477 3.95775 96.5525 3.70931 96.2142 3.70931H91.1841V5.31015Z" fill="white"/>
<path d="M109.81 0.876953H105.904L101.205 12.5717H104.499L107.822 4.1077L111.198 12.5717H114.492L109.812 0.876953H109.81Z" fill="white"/>
<path d="M56.7049 10.434V12.5718C55.2704 12.5387 53.917 11.9356 52.9551 10.9399L54.1613 9.01443C54.7649 9.61851 55.7749 10.3198 56.7049 10.434ZM58.2855 9.37407C58.2855 8.57465 57.1443 8.05272 56.5247 7.74217C56.0682 7.51376 55.6118 7.26933 55.2043 7.04092C54.0472 6.37174 53.2804 5.55629 53.2804 4.13676C53.2804 2.01599 54.9761 0.971137 56.7039 0.856934V3.02679C56.1493 3.12496 55.7579 3.41849 55.7579 4.02156C55.7579 4.51143 56.1983 4.88609 56.7199 5.19665C57.2414 5.52323 57.877 5.81675 58.4316 6.11027C59.7519 6.82855 60.779 7.59491 60.779 9.2759C60.779 11.3155 59.1974 12.3754 57.3555 12.5557V10.4179C57.9912 10.2877 58.2845 9.84691 58.2845 9.37407H58.2855ZM60.4546 2.21134L59.2975 4.03859C58.857 3.45154 58.0582 3.05985 57.3575 3.01076V0.856934C58.5637 0.922049 59.7539 1.44398 60.4556 2.21134H60.4546Z" fill="white"/>
<path d="M18.2082 6.75042V2.31353C16.9339 2.31353 15.2352 2.48383 13.8428 3.7581V0.817871H23.4915V3.7591C22.2002 2.36462 20.1111 2.2975 19.058 2.2975V6.75142C19.058 9.08056 19.007 11.6982 19.992 12.685H17.2742C18.2252 11.7333 18.2082 9.08056 18.2082 6.75142V6.75042Z" fill="white"/>
<path d="M25.0723 12.648C26.0162 11.7033 25.9992 9.07162 25.9992 6.76051C25.9992 4.4494 25.9151 1.71655 25.0723 0.873047H28.814C28.2745 1.81773 28.9151 4.4494 30.0783 7.58698C30.4997 8.71699 31.1234 10.4881 31.5618 11.6863C31.9322 10.4881 32.5058 8.63284 32.9272 7.3175C33.8541 4.4494 34.4107 1.85179 33.7871 0.874049H38.0173C37.2415 1.65043 37.0904 4.43337 37.0904 6.76151C37.0904 9.08965 37.0393 11.6702 38.0173 12.649H35.3206C36.2646 11.7043 36.2475 9.07262 36.2475 6.76151C36.2475 5.17569 36.1965 3.40455 35.9102 2.19039C35.1184 3.47267 34.4267 5.41211 33.719 7.58798C33.2305 9.10568 32.6069 11.8055 32.708 12.649H30.2134C30.4497 11.8726 29.792 9.10668 29.1344 7.3185C28.4937 5.58141 27.8361 3.92748 27.0953 2.69629C26.8931 3.86036 26.842 5.39508 26.842 6.76151C26.842 9.07262 26.791 11.6702 27.769 12.649H25.0723V12.648Z" fill="white"/>
<path d="M63.6855 12.684C64.6355 11.7333 64.6185 9.08557 64.6185 6.76044C64.6185 4.43531 64.5334 1.68542 63.6855 0.836914H72.2502V3.77313C70.8428 2.14424 68.3322 1.85572 66.6876 1.85572C66.1791 1.85572 65.7376 1.87276 65.4663 1.90682V6.20045C65.8738 6.25154 66.2802 6.26857 66.6876 6.26857C67.9769 6.26857 69.4524 6.08224 70.6726 5.48818V8.0337C69.4514 7.45668 67.9759 7.27035 66.6876 7.27035C66.2802 7.27035 65.8738 7.28738 65.4663 7.33847C65.4663 9.4943 65.5004 11.7854 66.3993 12.685H63.6855V12.684Z" fill="white"/>
<path d="M75.2881 1.58861C75.0329 1.81902 74.8417 2.09652 74.7145 2.42009C74.6335 2.62646 74.5784 2.85386 74.5504 3.0993C74.5343 3.22953 74.5273 3.36577 74.5273 3.50702C74.5273 3.92176 74.5914 4.28941 74.7185 4.61099C74.7736 4.75224 74.8417 4.88547 74.9227 5.00869C75.186 5.41141 75.5263 5.71695 75.9438 5.92632C75.9498 5.92933 75.9558 5.93233 75.9628 5.93534C75.9678 5.93834 75.9728 5.94035 75.9798 5.94235C76.0659 5.98142 76.2301 6.04353 76.4813 6.10163H76.5394C76.7906 6.10163 76.9848 6.14371 77.122 6.23086C77.137 6.23888 77.151 6.24789 77.164 6.25891C77.2761 6.34407 77.3442 6.45827 77.3642 6.60353C77.3662 6.61455 77.3682 6.62557 77.3692 6.63659C77.3722 6.65963 77.3732 6.68367 77.3732 6.70771C77.3732 6.73977 77.3712 6.77183 77.3672 6.80188C77.3612 6.85097 77.3502 6.89705 77.3362 6.94013C77.2921 7.07336 77.207 7.18656 77.0809 7.28073C77.0589 7.29776 77.0359 7.31279 77.0128 7.32681C76.9898 7.34084 76.9668 7.35386 76.9428 7.36588C76.9378 7.36889 76.9328 7.37189 76.9278 7.37289C76.9117 7.38091 76.8957 7.38792 76.8777 7.39393C76.8667 7.39994 76.8557 7.40395 76.8447 7.40796C76.8207 7.41697 76.7966 7.42499 76.7716 7.433C76.5143 7.51815 76.204 7.56123 75.9858 7.6574C75.9708 7.66341 75.9568 7.67142 75.9438 7.67744C75.9177 7.69046 75.8917 7.70448 75.8667 7.71851C75.6635 7.8287 75.4793 7.96294 75.3141 8.12223C75.2931 8.14226 75.2731 8.1633 75.2521 8.18333C75.211 8.22441 75.173 8.26748 75.135 8.31156C75.0589 8.39972 74.9888 8.49489 74.9227 8.59607C74.8417 8.71929 74.7736 8.85152 74.7185 8.99378C74.7716 9.13302 74.8367 9.26526 74.9127 9.38848C75.17 9.80522 75.5063 10.1178 75.9228 10.3271C76.0579 10.3943 76.198 10.4534 76.3412 10.5035C76.4092 10.5275 76.4773 10.5495 76.5474 10.5686V10.8901L75.3802 10.6187H74.7135V11.1857C74.8206 11.4562 74.9718 11.6946 75.169 11.9009C75.207 11.941 75.2451 11.9791 75.2871 12.0161C75.7946 12.475 76.5123 12.7044 77.4433 12.7044H85.3603V9.70203H78.0259C77.7486 9.70203 77.5404 9.64994 77.4012 9.54475C77.2631 9.44057 77.193 9.2913 77.193 9.09596C77.193 9.0639 77.195 9.03184 77.199 9.00179C77.195 8.97174 77.193 8.93968 77.193 8.90862C77.193 8.71428 77.2631 8.56401 77.4012 8.45983C77.5404 8.35564 77.7486 8.30255 78.0259 8.30255H85.3603V5.30021H78.0259C77.7486 5.30021 77.5404 5.24812 77.4012 5.14393C77.2631 5.03975 77.193 4.89048 77.193 4.69513C77.193 4.66308 77.195 4.63102 77.199 4.60097C77.195 4.57091 77.193 4.53886 77.193 4.5068C77.193 4.31346 77.2631 4.16219 77.4012 4.058C77.5404 3.95382 77.7486 3.90173 78.0259 3.90173H85.3603V0.900391H77.4433C76.5123 0.900391 75.7936 1.1288 75.2871 1.58861H75.2881Z" fill="white"/>
<path d="M75.2881 1.58861C75.0329 1.81902 74.8417 2.09652 74.7145 2.42009V2.9861H75.3812L76.5484 2.71462V3.03518C76.4803 3.05422 76.4122 3.07626 76.3452 3.0993C76.2 3.14939 76.0589 3.20949 75.9228 3.27762C75.5063 3.48599 75.17 3.79854 74.9127 4.21628C74.8367 4.3395 74.7716 4.47174 74.7185 4.61099C74.7736 4.75224 74.8417 4.88547 74.9227 5.00869C75.186 5.41141 75.5263 5.71695 75.9438 5.92632C75.9498 5.92933 75.9558 5.93233 75.9628 5.93534C75.9678 5.93834 75.9728 5.94035 75.9798 5.94235C76.0659 5.98142 76.2301 6.04353 76.4813 6.10163C76.7035 6.15373 76.9828 6.15373 77.122 6.23086C77.138 6.23788 77.152 6.24789 77.164 6.25891C77.2691 6.35308 77.3412 6.46228 77.3642 6.60353C77.3662 6.61455 77.3682 6.62557 77.3692 6.63659C77.3722 6.65963 77.3732 6.68367 77.3732 6.70771C77.3732 6.73977 77.3712 6.77183 77.3672 6.80188C77.3612 6.85097 77.3502 6.89705 77.3362 6.94013C77.2901 7.07136 77.202 7.18155 77.0809 7.28073C77.0599 7.29776 77.0369 7.31379 77.0128 7.32681C76.9908 7.34184 76.9678 7.35486 76.9428 7.36588C76.9378 7.36889 76.9328 7.37189 76.9278 7.37289C76.9117 7.38091 76.8957 7.38792 76.8777 7.39393C76.8667 7.39994 76.8557 7.40395 76.8447 7.40796C76.8207 7.41697 76.7966 7.42499 76.7716 7.433C76.5143 7.51815 76.204 7.56123 75.9858 7.6574C75.9708 7.66341 75.9568 7.67142 75.9438 7.67744C75.9177 7.69046 75.8917 7.70448 75.8667 7.71851C75.6635 7.82971 75.4793 7.96495 75.3141 8.12223C75.2931 8.14226 75.2731 8.1633 75.2521 8.18333C75.212 8.22441 75.173 8.26748 75.135 8.31156C75.0589 8.39972 74.9888 8.49489 74.9227 8.59607C74.8417 8.71929 74.7736 8.85152 74.7185 8.99378C74.5914 9.31535 74.5273 9.683 74.5273 10.0977C74.5273 10.239 74.5343 10.3732 74.5504 10.5035C74.5784 10.7499 74.6335 10.9763 74.7145 11.1857C74.8216 11.4562 74.9728 11.6946 75.17 11.9009C75.208 11.941 75.2461 11.9791 75.2881 12.0161C75.7956 12.475 76.5133 12.7044 77.4443 12.7044H85.3613V9.70203H78.0269C77.7496 9.70203 77.5414 9.64994 77.4022 9.54475C77.2641 9.44057 77.194 9.2913 77.194 9.09596C77.194 9.0639 77.196 9.03184 77.2 9.00179C77.196 8.97174 77.194 8.93968 77.194 8.90862C77.194 8.71428 77.2641 8.56401 77.4022 8.45983C77.5414 8.35564 77.7496 8.30255 78.0269 8.30255H85.3613V5.30021H78.0269C77.7496 5.30021 77.5414 5.24812 77.4022 5.14393C77.2641 5.03975 77.194 4.89048 77.194 4.69513C77.194 4.66308 77.196 4.63102 77.2 4.60097C77.196 4.57091 77.194 4.53886 77.194 4.5068C77.194 4.31346 77.2641 4.16219 77.4022 4.058C77.5414 3.95382 77.7496 3.90173 78.0269 3.90173H85.3613V0.900391H77.4443C76.5133 0.900391 75.7946 1.1288 75.2881 1.58861Z" fill="white"/>
<path d="M76.3018 6.05563C76.3018 6.05563 76.6351 6.14378 76.8033 6.18486C77.0475 6.24396 77.3909 6.35215 77.3759 6.75086C77.3498 7.42707 77.9224 6.61562 77.9224 6.61562L77.1436 5.76611L76.3008 6.05563H76.3018Z" fill="white"/>
<path d="M0.508789 12.6886L5.25758 0.870605H9.20556L13.9363 12.6886H10.5219L9.41877 9.89464H4.97229L3.8872 12.6886H0.508789ZM6.0754 7.04658H8.33368L7.17751 4.30571L6.0744 7.04658H6.0754Z" fill="white"/>
</svg>
