<svg width="115" height="13" viewBox="0 0 115 13" fill="none" xmlns="http://www.w3.org/2000/svg">
<path d="M17.1198 3.51839H12.8545V0.654297H24.5853V3.51839H20.302V12.4653H17.1208V3.51839H17.1198Z" fill="white"/>
<path d="M53.1651 8.16673H56.2041L56.2211 8.59349C56.2552 9.43098 57.2111 9.63634 58.6286 9.63634C60.5415 9.63634 61.002 9.19155 60.9679 8.52537C60.9679 7.91028 59.9779 7.756 58.4914 7.756C54.3763 7.756 53.3172 6.38857 53.2492 4.3209C53.13 1.34761 55.1961 0.612305 58.3203 0.612305C62.5035 0.612305 63.5966 2.11598 63.6827 4.38902L63.6997 4.81578H60.6426L60.6256 4.38902C60.5916 3.55153 59.7207 3.34616 58.4224 3.34616C56.6976 3.34616 56.2882 3.73886 56.3052 4.31989C56.3052 4.8839 57.2272 5.02014 58.5935 5.02014C62.8288 5.02014 63.9559 6.42163 64.024 8.52337C64.1431 11.5998 61.992 12.3682 58.7307 12.3682C54.3933 12.3682 53.2492 10.8645 53.1811 8.59149L53.1641 8.16473L53.1651 8.16673Z" fill="white"/>
<path d="M87.8301 12.4683V0.655273H96.0434C98.692 0.655273 99.7591 2.62978 99.7591 4.37388C99.7591 5.74332 99.0484 7.29207 97.2706 7.80798C97.2706 7.82602 97.2886 7.82602 97.2886 7.84405L100.097 12.4693H96.5068L93.8051 7.9863H91.0143V12.4693H87.8321L87.8301 12.4683ZM91.0123 5.12021H96.0434C96.3807 5.12021 96.5769 4.87076 96.5769 4.48007V4.1595C96.5769 3.7678 96.3817 3.51936 96.0434 3.51936H91.0123V5.12021Z" fill="white"/>
<path d="M9.11953 0.655273H5.15553L0.386719 12.5234H3.72909L7.10049 3.9341L10.5269 12.5234H13.8693L9.11953 0.655273Z" fill="white"/>
<path d="M37.8585 1.44779C37.6052 1.16729 37.2999 0.956917 36.9455 0.81767C36.7183 0.728512 36.4691 0.667403 36.1998 0.637349C36.0566 0.620319 35.9075 0.612305 35.7523 0.612305C35.2979 0.612305 34.8935 0.682429 34.5411 0.821676C34.386 0.882785 34.2398 0.957919 34.1047 1.04708C33.6622 1.33659 33.3269 1.71126 33.0977 2.16907C33.0947 2.17508 33.0916 2.18209 33.0876 2.19011C33.0846 2.19512 33.0826 2.20113 33.0796 2.20814C33.0376 2.30231 32.9685 2.48263 32.9045 2.75912V2.82324C32.9045 3.09872 32.8574 3.31311 32.7623 3.46337C32.7533 3.4794 32.7433 3.49443 32.7323 3.51046C32.6392 3.63368 32.5131 3.70781 32.3549 3.73085C32.3429 3.73285 32.3309 3.73486 32.3189 3.73586C32.2938 3.73886 32.2668 3.73986 32.2408 3.73986C32.2058 3.73986 32.1707 3.73786 32.1377 3.73385C32.0836 3.72784 32.0336 3.71582 31.9855 3.69979C31.8394 3.65071 31.7153 3.55754 31.6122 3.41929C31.5941 3.39525 31.5771 3.3692 31.5611 3.34416C31.5461 3.31912 31.5321 3.29307 31.5191 3.26702C31.5161 3.26201 31.5131 3.256 31.5111 3.25099C31.502 3.23396 31.495 3.21593 31.488 3.1959C31.482 3.18388 31.477 3.17185 31.473 3.15983C31.463 3.13379 31.454 3.10674 31.446 3.07969C31.3529 2.79719 31.3048 2.45558 31.1997 2.21616C31.1927 2.20013 31.1847 2.1851 31.1777 2.16907C31.1637 2.14102 31.1487 2.11197 31.1327 2.08392C31.0126 1.86052 30.8644 1.65816 30.6892 1.47684C30.6672 1.4538 30.6442 1.43076 30.6222 1.40872C30.5771 1.36364 30.5301 1.32157 30.481 1.27949C30.3839 1.19634 30.2798 1.1182 30.1687 1.04608C30.0326 0.956917 29.8884 0.881784 29.7323 0.820675C29.5791 0.87978 29.435 0.950907 29.2988 1.03405C28.8414 1.31656 28.499 1.68722 28.2688 2.14503C28.1947 2.29429 28.1296 2.44857 28.0756 2.60485C28.0496 2.67998 28.0245 2.75511 28.0035 2.83225H27.6512L27.9485 1.54897V0.815666H27.3268C27.0305 0.932874 26.7673 1.09917 26.542 1.31656C26.498 1.35763 26.456 1.40071 26.4159 1.44679C25.9124 2.00478 25.6602 2.79418 25.6602 3.818V12.5225H28.9555V4.45914C28.9555 4.1536 29.0135 3.92519 29.1277 3.77192C29.2418 3.61965 29.4059 3.54251 29.6201 3.54251C29.6552 3.54251 29.6902 3.54452 29.7233 3.54852C29.7563 3.54452 29.7913 3.54251 29.8254 3.54251C30.0386 3.54251 30.2027 3.61965 30.3179 3.77192C30.432 3.92519 30.49 4.1536 30.49 4.45914V12.5225H33.7853V4.45914C33.7853 4.1536 33.8424 3.92519 33.9565 3.77192C34.0706 3.61965 34.2348 3.54251 34.449 3.54251C34.4841 3.54251 34.5191 3.54452 34.5521 3.54852C34.5852 3.54452 34.6202 3.54251 34.6552 3.54251C34.8674 3.54251 35.0326 3.61965 35.1477 3.77192C35.2618 3.92519 35.3189 4.1536 35.3189 4.45914V12.5225H38.6142V3.818C38.6142 2.79418 38.363 2.00478 37.8585 1.44679V1.44779Z" fill="white"/>
<path d="M37.8585 1.44779C37.6052 1.16729 37.2999 0.956917 36.9455 0.81767H36.3249V1.55097L36.6222 2.83425H36.2709C36.2498 2.75912 36.2258 2.68399 36.1998 2.61086C36.1447 2.45157 36.0797 2.2963 36.0046 2.14703C35.7754 1.68922 35.432 1.31856 34.9745 1.03606C34.8384 0.951908 34.6943 0.880782 34.5411 0.822679C34.386 0.883788 34.2398 0.958921 34.1047 1.04808C33.6622 1.33759 33.3269 1.71226 33.0977 2.17007C33.0947 2.17608 33.0916 2.1831 33.0876 2.19111C33.0846 2.19612 33.0826 2.20213 33.0796 2.20914C33.0376 2.30331 32.9685 2.48363 32.9045 2.76012C32.8474 3.00456 32.8464 3.3111 32.7623 3.46437C32.7543 3.4814 32.7443 3.49743 32.7323 3.51146C32.6292 3.62666 32.5091 3.7058 32.3549 3.73185C32.3429 3.73385 32.3309 3.73586 32.3189 3.73686C32.2938 3.73986 32.2668 3.74086 32.2408 3.74086C32.2058 3.74086 32.1707 3.73886 32.1377 3.73485C32.0836 3.72884 32.0336 3.71682 31.9855 3.70079C31.8414 3.6497 31.7203 3.55353 31.6122 3.4203C31.5931 3.39725 31.5761 3.37121 31.5611 3.34516C31.5451 3.32112 31.5311 3.29507 31.5191 3.26803C31.5161 3.26302 31.5131 3.25701 31.5111 3.252C31.502 3.23497 31.495 3.21693 31.488 3.1969C31.482 3.18488 31.477 3.17286 31.473 3.16083C31.463 3.13479 31.454 3.10774 31.446 3.08069C31.3529 2.79819 31.3048 2.45658 31.1997 2.21716C31.1927 2.20113 31.1847 2.1861 31.1777 2.17007C31.1637 2.14202 31.1487 2.11297 31.1327 2.08492C31.0106 1.86152 30.8624 1.65917 30.6892 1.47784C30.6672 1.4548 30.6442 1.43176 30.6222 1.40972C30.5761 1.36564 30.5301 1.32257 30.481 1.28049C30.3839 1.19734 30.2798 1.11921 30.1687 1.04708C30.0326 0.957919 29.8884 0.882785 29.7323 0.821676C29.3799 0.681427 28.9755 0.612305 28.521 0.612305C28.3659 0.612305 28.2177 0.620319 28.0756 0.637349C27.8053 0.667403 27.5561 0.728512 27.3268 0.81767C27.0305 0.934878 26.7673 1.10117 26.542 1.31856C26.498 1.35963 26.456 1.40271 26.4159 1.44879C25.9124 2.00678 25.6602 2.79619 25.6602 3.82001V12.5245H28.9555V4.46115C28.9555 4.1556 29.0135 3.9272 29.1277 3.77392C29.2418 3.62165 29.4059 3.54452 29.6201 3.54452C29.6552 3.54452 29.6902 3.54652 29.7233 3.55053C29.7563 3.54652 29.7913 3.54452 29.8254 3.54452C30.0386 3.54452 30.2027 3.62165 30.3179 3.77392C30.432 3.9272 30.49 4.1556 30.49 4.46115V12.5245H33.7853V4.46115C33.7853 4.1556 33.8424 3.9272 33.9565 3.77392C34.0706 3.62165 34.2348 3.54452 34.449 3.54452C34.4841 3.54452 34.5191 3.54652 34.5521 3.55053C34.5852 3.54652 34.6202 3.54452 34.6552 3.54452C34.8674 3.54452 35.0326 3.62165 35.1477 3.77392C35.2618 3.9272 35.3189 4.1556 35.3189 4.46115V12.5245H38.6142V3.82001C38.6142 2.79619 38.363 2.00678 37.8585 1.44879V1.44779Z" fill="white"/>
<path d="M32.9535 2.56201C32.9535 2.56201 32.8574 2.92866 32.8123 3.11399C32.7473 3.38247 32.6292 3.76014 32.1907 3.74311C31.449 3.71506 32.3389 4.34418 32.3389 4.34418L33.2718 3.48866L32.9535 2.56201Z" fill="white"/>
<path d="M66.8896 0.559082H69.4392V5.47582H73.4342V7.78993H69.4392V12.4682H66.8896V0.559082ZM70.1199 0.559082H74.0979V2.85617H70.1199V0.559082Z" fill="white"/>
<path d="M45.7101 0.602051C48.8983 0.602051 51.0174 2.88811 51.0174 6.50554C51.0174 10.123 48.8973 12.409 45.7101 12.409C42.5229 12.409 40.3867 10.1069 40.3867 6.50554C40.3867 2.90414 42.5229 0.602051 45.7101 0.602051ZM45.7101 10.7641C48.5039 10.7641 50.1956 9.10316 50.1956 6.50554C50.1956 3.90793 48.5029 2.24697 45.7101 2.24697C42.9173 2.24697 41.2075 3.8909 41.2075 6.50554C41.2075 9.12019 42.9163 10.7641 45.7101 10.7641Z" fill="white"/>
<path d="M77.2426 6.49898C77.2426 4.15983 77.0734 1.43198 76.2266 0.584473H84.8122V3.51668C83.3898 1.88979 80.8662 1.58425 79.2236 1.58425C78.7491 1.58425 78.3597 1.60128 78.0894 1.63534V5.95702C78.4788 6.00811 78.8682 6.00811 79.2576 6.00811C80.5449 6.00811 82.0184 5.82178 83.2376 5.22873V7.77125C82.0184 7.19522 80.5449 7.00889 79.2576 7.00889C78.8682 7.00889 78.4788 7.00889 78.0894 7.05998V11.3646C78.3607 11.3987 78.7501 11.4157 79.2236 11.4157C80.8492 11.4157 83.3898 11.1102 84.8122 9.46626V12.4155H76.2266C77.0734 11.568 77.2426 8.83915 77.2426 6.50099V6.49898Z" fill="white"/>
<path d="M114.612 12.4596H108.325V7.03797H107.473V12.4596H101.186L105.933 0.641602H109.881L114.612 12.4596Z" fill="white"/>
</svg>
