<svg width="117" height="15" viewBox="0 0 117 15" fill="none" xmlns="http://www.w3.org/2000/svg">
<path d="M41.7376 2.25848L38.9049 5.09336C37.6814 6.31788 37.6814 8.30321 38.9049 9.52773L41.7376 12.3626C42.9612 13.5871 44.945 13.5871 46.1686 12.3626L49.0013 9.52773C50.2249 8.30321 50.2249 6.31788 49.0013 5.09336L46.1686 2.25848C44.945 1.03396 42.9612 1.03396 41.7376 2.25848Z" fill="white"/>
<path d="M64.5039 1.41799H75.7973V4.28309H67.6871V5.88493H75.2638V8.75003H67.6871V13.235H64.5039V1.41699V1.41799Z" fill="white"/>
<path d="M13.4265 13.236H7.1392V7.81434H6.28834V13.236H0L4.74779 1.41797H8.69677L13.4265 13.236Z" fill="white"/>
<path d="M35.4765 2.24327C35.2223 1.96177 34.917 1.7514 34.5616 1.61115C34.3344 1.52199 34.0841 1.46088 33.8139 1.42983C33.6707 1.4128 33.5206 1.40479 33.3644 1.40479C32.908 1.40479 32.5026 1.47491 32.1492 1.61516C31.994 1.67627 31.8479 1.7514 31.7118 1.84056C31.2683 2.13108 30.932 2.50675 30.7017 2.96556C30.6987 2.97157 30.6957 2.97858 30.6917 2.9866C30.6887 2.99161 30.6867 2.99762 30.6837 3.00463C30.6407 3.0988 30.5716 3.28012 30.5075 3.55761V3.62173C30.5075 3.89822 30.4605 4.1126 30.3654 4.26387C30.3564 4.2799 30.3464 4.29492 30.3354 4.31095C30.2423 4.43517 30.1161 4.50931 29.956 4.53134C29.944 4.53335 29.932 4.53535 29.9189 4.53635C29.8939 4.53936 29.8669 4.54036 29.8409 4.54036C29.8048 4.54036 29.7708 4.53836 29.7368 4.53435C29.6827 4.52834 29.6317 4.51632 29.5846 4.49929C29.4385 4.4502 29.3133 4.35703 29.2102 4.21779C29.1922 4.19374 29.1742 4.1677 29.1592 4.14265C29.1442 4.11761 29.1301 4.09156 29.1161 4.06551C29.1131 4.0605 29.1101 4.05449 29.1081 4.04948C29.0991 4.03245 29.0921 4.01342 29.0851 3.99439C29.0791 3.98237 29.0741 3.97035 29.0701 3.95732C29.0601 3.93128 29.0511 3.90423 29.0431 3.87718C28.95 3.59367 28.9019 3.25107 28.7958 3.01064C28.7888 2.99461 28.7808 2.97958 28.7738 2.96356C28.7598 2.93551 28.7448 2.90646 28.7287 2.87841C28.6076 2.65501 28.4595 2.45165 28.2843 2.26932C28.2623 2.24628 28.2393 2.22324 28.2172 2.2012C28.1722 2.15612 28.1251 2.11405 28.0761 2.07197C27.979 1.98882 27.8739 1.91069 27.7628 1.83856C27.6266 1.7494 27.4815 1.67427 27.3253 1.61316C27.1722 1.67226 27.027 1.74339 26.8909 1.82754C26.4314 2.11104 26.0881 2.4827 25.8578 2.94152C25.7838 3.09078 25.7187 3.24506 25.6637 3.40334C25.6376 3.47847 25.6126 3.5536 25.5916 3.63074H25.2382L25.5365 2.34345V1.60815H24.9129C24.6156 1.72636 24.3523 1.89265 24.1261 2.11004C24.0821 2.15211 24.04 2.19419 23.999 2.24027C23.4945 2.79926 23.2412 3.59167 23.2412 4.6185V13.348H26.5465V5.26064C26.5465 4.9551 26.6046 4.72469 26.7197 4.57141C26.8348 4.41914 26.999 4.34201 27.2132 4.34201C27.2493 4.34201 27.2833 4.34401 27.3173 4.34802C27.3504 4.34401 27.3854 4.34201 27.4194 4.34201C27.6336 4.34201 27.7988 4.41914 27.9129 4.57141C28.028 4.72469 28.0861 4.9551 28.0861 5.26064V13.348H31.3914V5.26064C31.3914 4.9551 31.4485 4.72469 31.5626 4.57141C31.6777 4.41914 31.8419 4.34201 32.0561 4.34201C32.0921 4.34201 32.1262 4.34401 32.1602 4.34802C32.1932 4.34401 32.2283 4.34201 32.2643 4.34201C32.4775 4.34201 32.6437 4.41914 32.7578 4.57141C32.8729 4.72469 32.929 4.9551 32.929 5.26064V13.348H36.2343V4.6185C36.2343 3.59167 35.9821 2.80026 35.4765 2.24027V2.24327Z" fill="white"/>
<path d="M35.4765 2.2433C35.2223 1.9618 34.917 1.75142 34.5616 1.61117H33.939V2.34648L34.2373 3.63377H33.8849C33.8639 3.55864 33.8399 3.4835 33.8139 3.41037C33.7588 3.25109 33.6927 3.09481 33.6177 2.94454C33.3884 2.48473 33.0441 2.11407 32.5846 1.83057C32.4485 1.74642 32.3034 1.67529 32.1502 1.61619C31.995 1.67729 31.8489 1.75243 31.7128 1.84159C31.2693 2.1321 30.933 2.50777 30.7027 2.96658C30.6997 2.97259 30.6967 2.97961 30.6927 2.98762C30.6897 2.99263 30.6877 2.99864 30.6847 3.00565C30.6417 3.09982 30.5726 3.28114 30.5085 3.55864C30.4515 3.80407 30.4505 4.11162 30.3664 4.26489C30.3584 4.28192 30.3484 4.29795 30.3364 4.31198C30.2323 4.42818 30.1131 4.50732 29.957 4.53237C29.945 4.53437 29.933 4.53638 29.9199 4.53738C29.8949 4.54038 29.8679 4.54138 29.8419 4.54138C29.8058 4.54138 29.7718 4.53938 29.7378 4.53537C29.6837 4.52936 29.6327 4.51734 29.5856 4.50031C29.4415 4.44922 29.3193 4.35305 29.2112 4.21881C29.1922 4.19577 29.1742 4.16972 29.1602 4.14368C29.1442 4.11963 29.1301 4.09359 29.1171 4.06654C29.1141 4.06153 29.1111 4.05552 29.1091 4.05051C29.1001 4.03348 29.0931 4.01445 29.0861 3.99541C29.0801 3.98339 29.0751 3.97137 29.0711 3.95835C29.0611 3.9323 29.0521 3.90525 29.0441 3.8782C28.951 3.5947 28.9029 3.25209 28.7968 3.01166C28.7898 2.99564 28.7818 2.98061 28.7748 2.96458C28.7608 2.93653 28.7458 2.90748 28.7297 2.87943C28.6066 2.65603 28.4585 2.45267 28.2853 2.27035C28.2633 2.24731 28.2403 2.22427 28.2182 2.20223C28.1722 2.15815 28.1261 2.11507 28.0771 2.073C27.98 1.98985 27.8749 1.91171 27.7638 1.83958C27.6276 1.75042 27.4825 1.67529 27.3263 1.61418C26.973 1.47393 26.5676 1.40381 26.1111 1.40381C25.9559 1.40381 25.8078 1.41182 25.6637 1.42885C25.3924 1.45891 25.1421 1.52001 24.9129 1.61018C24.6156 1.72839 24.3523 1.89468 24.1261 2.11207C24.0821 2.15414 24.04 2.19622 23.999 2.2423C23.4945 2.80129 23.2412 3.5937 23.2412 4.62052V13.35H26.5465V5.26267C26.5465 4.95712 26.6046 4.72671 26.7197 4.57344C26.8348 4.42117 26.999 4.34403 27.2132 4.34403C27.2493 4.34403 27.2833 4.34604 27.3173 4.35004C27.3504 4.34604 27.3854 4.34403 27.4194 4.34403C27.6336 4.34403 27.7988 4.42117 27.9129 4.57344C28.028 4.72671 28.0861 4.95712 28.0861 5.26267V13.35H31.3914V5.26267C31.3914 4.95712 31.4485 4.72671 31.5626 4.57344C31.6777 4.42117 31.8419 4.34403 32.0561 4.34403C32.0921 4.34403 32.1262 4.34604 32.1602 4.35004C32.1932 4.34604 32.2283 4.34403 32.2643 4.34403C32.4775 4.34403 32.6437 4.42117 32.7578 4.57344C32.8729 4.72671 32.929 4.95712 32.929 5.26267V13.35H36.2343V4.62052C36.2343 3.5937 35.9821 2.80229 35.4765 2.2423V2.2433Z" fill="white"/>
<path d="M30.5577 3.36035C30.5577 3.36035 30.4616 3.728 30.4156 3.91333C30.3505 4.18181 30.2324 4.56148 29.792 4.54445C29.0482 4.5164 29.9411 5.14753 29.9411 5.14753L30.8771 4.289L30.5577 3.36035Z" fill="white"/>
<path d="M78.9014 2.12331C78.6461 2.35372 78.4549 2.63121 78.3278 2.95478C78.2467 3.16115 78.1917 3.38855 78.1637 3.63399C78.1476 3.76422 78.1406 3.90047 78.1406 4.04172C78.1406 4.45645 78.2047 4.82411 78.3318 5.14568C78.3869 5.28693 78.4549 5.42017 78.536 5.54338C78.7993 5.9461 79.1396 6.25164 79.5571 6.46102C79.5631 6.46402 79.5691 6.46703 79.5761 6.47003C79.5811 6.47304 79.5861 6.47504 79.5931 6.47704C79.6792 6.51611 79.8433 6.57822 80.0946 6.63633H80.1527C80.4039 6.63633 80.5981 6.6784 80.7352 6.76556C80.7503 6.77357 80.7643 6.78259 80.7773 6.79361C80.8894 6.87876 80.9575 6.99296 80.9775 7.13822C80.9795 7.14924 80.9815 7.16026 80.9825 7.17128C80.9855 7.19432 80.9865 7.21836 80.9865 7.24241C80.9865 7.27446 80.9845 7.30652 80.9805 7.33657C80.9745 7.38566 80.9635 7.43174 80.9495 7.47482C80.9054 7.60805 80.8203 7.72125 80.6942 7.81542C80.6722 7.83245 80.6492 7.84748 80.6261 7.86151C80.6031 7.87553 80.5801 7.88856 80.5561 7.90058C80.5511 7.90358 80.5461 7.90659 80.5411 7.90759C80.525 7.9156 80.509 7.92261 80.491 7.92862C80.48 7.93463 80.469 7.93864 80.458 7.94265C80.4339 7.95167 80.4099 7.95968 80.3849 7.96769C80.1276 8.05285 79.8173 8.09592 79.5991 8.19209C79.5841 8.1981 79.5701 8.20612 79.5571 8.21213C79.531 8.22515 79.505 8.23917 79.48 8.2532C79.2768 8.36339 79.0926 8.49764 78.9274 8.65692C78.9064 8.67695 78.8864 8.69799 78.8654 8.71803C78.8243 8.7591 78.7863 8.80218 78.7482 8.84626C78.6722 8.93441 78.6021 9.02958 78.536 9.13076C78.4549 9.25398 78.3869 9.38622 78.3318 9.52847C78.3849 9.66772 78.4499 9.79995 78.526 9.92317C78.7833 10.3399 79.1196 10.6525 79.536 10.8618C79.6712 10.929 79.8113 10.9881 79.9545 11.0382C80.0225 11.0622 80.0906 11.0842 80.1607 11.1033V11.4248L78.9935 11.1534H78.3268V11.7204C78.4339 11.9908 78.5851 12.2293 78.7823 12.4356C78.8203 12.4757 78.8584 12.5138 78.9004 12.5508C79.4079 13.0097 80.1256 13.2391 81.0566 13.2391H88.9736V10.2367H81.6392C81.3619 10.2367 81.1537 10.1846 81.0145 10.0794C80.8764 9.97526 80.8063 9.82599 80.8063 9.63065C80.8063 9.59859 80.8083 9.56653 80.8123 9.53648C80.8083 9.50643 80.8063 9.47437 80.8063 9.44331C80.8063 9.24897 80.8764 9.0987 81.0145 8.99452C81.1537 8.89033 81.3619 8.83724 81.6392 8.83724H88.9736V5.8349H81.6392C81.3619 5.8349 81.1537 5.78281 81.0145 5.67863C80.8764 5.57444 80.8063 5.42517 80.8063 5.22983C80.8063 5.19777 80.8083 5.16572 80.8123 5.13566C80.8083 5.10561 80.8063 5.07355 80.8063 5.04149C80.8063 4.84815 80.8764 4.69688 81.0145 4.5927C81.1537 4.48851 81.3619 4.43642 81.6392 4.43642H88.9736V1.43408H81.0566C80.1256 1.43408 79.4069 1.66249 78.9004 2.1223L78.9014 2.12331Z" fill="white"/>
<path d="M78.9014 2.12331C78.6461 2.35372 78.4549 2.63121 78.3278 2.95478V3.52079H78.9945L80.1617 3.24931V3.56988C80.0936 3.58891 80.0255 3.61095 79.9585 3.63399C79.8133 3.68408 79.6722 3.74419 79.536 3.81231C79.1196 4.02068 78.7833 4.33323 78.526 4.75098C78.4499 4.87419 78.3849 5.00643 78.3318 5.14568C78.3869 5.28693 78.4549 5.42017 78.536 5.54338C78.7993 5.9461 79.1396 6.25164 79.5571 6.46102C79.5631 6.46402 79.5691 6.46703 79.5761 6.47003C79.5811 6.47304 79.5861 6.47504 79.5931 6.47704C79.6792 6.51611 79.8433 6.57822 80.0946 6.63633C80.3168 6.68842 80.5961 6.68842 80.7352 6.76556C80.7513 6.77257 80.7653 6.78259 80.7773 6.79361C80.8824 6.88777 80.9545 6.99697 80.9775 7.13822C80.9795 7.14924 80.9815 7.16026 80.9825 7.17128C80.9855 7.19432 80.9865 7.21836 80.9865 7.24241C80.9865 7.27446 80.9845 7.30652 80.9805 7.33657C80.9745 7.38566 80.9635 7.43174 80.9495 7.47482C80.9034 7.60605 80.8153 7.71625 80.6942 7.81542C80.6732 7.83245 80.6502 7.84848 80.6261 7.86151C80.6041 7.87653 80.5811 7.88956 80.5561 7.90058C80.5511 7.90358 80.5461 7.90659 80.5411 7.90759C80.525 7.9156 80.509 7.92261 80.491 7.92862C80.48 7.93463 80.469 7.93864 80.458 7.94265C80.4339 7.95167 80.4099 7.95968 80.3849 7.96769C80.1276 8.05285 79.8173 8.09592 79.5991 8.19209C79.5841 8.1981 79.5701 8.20612 79.5571 8.21213C79.531 8.22515 79.505 8.23917 79.48 8.2532C79.2768 8.3644 79.0926 8.49964 78.9274 8.65692C78.9064 8.67695 78.8864 8.69799 78.8654 8.71803C78.8253 8.7591 78.7863 8.80218 78.7482 8.84626C78.6722 8.93441 78.6021 9.02958 78.536 9.13076C78.4549 9.25398 78.3869 9.38622 78.3318 9.52847C78.2047 9.85004 78.1406 10.2177 78.1406 10.6324C78.1406 10.7737 78.1476 10.9079 78.1637 11.0382C78.1917 11.2846 78.2467 11.511 78.3278 11.7204C78.4349 11.9908 78.5861 12.2293 78.7833 12.4356C78.8213 12.4757 78.8594 12.5138 78.9014 12.5508C79.4089 13.0097 80.1266 13.2391 81.0576 13.2391H88.9746V10.2367H81.6402C81.3629 10.2367 81.1547 10.1846 81.0155 10.0794C80.8774 9.97526 80.8073 9.82599 80.8073 9.63065C80.8073 9.59859 80.8093 9.56653 80.8133 9.53648C80.8093 9.50643 80.8073 9.47437 80.8073 9.44331C80.8073 9.24897 80.8774 9.0987 81.0155 8.99452C81.1547 8.89033 81.3629 8.83724 81.6402 8.83724H88.9746V5.8349H81.6402C81.3629 5.8349 81.1547 5.78281 81.0155 5.67863C80.8774 5.57444 80.8073 5.42517 80.8073 5.22983C80.8073 5.19777 80.8093 5.16572 80.8133 5.13566C80.8093 5.10561 80.8073 5.07355 80.8073 5.04149C80.8073 4.84815 80.8774 4.69688 81.0155 4.5927C81.1547 4.48851 81.3629 4.43642 81.6402 4.43642H88.9746V1.43408H81.0576C80.1266 1.43408 79.4079 1.66249 78.9014 2.1223V2.12331Z" fill="white"/>
<path d="M79.9141 6.58981C79.9141 6.58981 80.2474 6.67797 80.4156 6.71904C80.6598 6.77814 81.0032 6.88634 80.9882 7.28504C80.9621 7.96125 81.5347 7.1498 81.5347 7.1498L80.7559 6.30029L79.9131 6.58981H79.9141Z" fill="white"/>
<path d="M103.572 13.2233L108.321 1.40527H112.269L117 13.2233H113.585L112.482 10.4293H108.036L106.951 13.2233H103.571H103.572ZM109.139 7.58025H111.397L110.241 4.83938L109.138 7.58025H109.139Z" fill="white"/>
<path d="M21.0703 3.6574H12.9121V1.34229H21.0703V3.6574ZM18.2765 4.34362V13.3486H15.7059V4.34362H18.2765Z" fill="white"/>
<path d="M56.3267 6.7704C59.7211 7.56581 61.7582 7.94649 61.7582 10.1514C61.7582 12.3563 59.9033 13.3 57.2216 13.3C54.8872 13.3 53.2306 12.4876 52.1875 11.1131L53.4127 9.83685C54.0424 10.8476 55.2506 11.6431 57.586 11.6431C59.7051 11.6431 60.9473 10.9969 60.9473 9.93603C60.9473 8.65976 59.2416 8.36223 57.2546 7.84831C54.8202 7.21819 52.5188 6.83752 52.5188 4.66666C52.5188 2.74424 54.3737 1.40186 56.9233 1.40186C59.0094 1.40186 60.4669 2.29645 61.4438 3.57272L60.2186 4.86501C59.589 3.83718 58.3808 3.0588 56.5099 3.0588C54.639 3.0588 53.3477 3.92033 53.3477 4.89807C53.3477 6.0411 55.0364 6.45584 56.3287 6.7704H56.3267Z" fill="white"/>
<path d="M101.652 5.28897C101.652 7.56 100.304 9.02961 97.9145 9.33616C98.7333 10.378 100.56 12.5809 101.856 13.3323H98.7843C98.9205 12.7512 98.0506 11.0091 97.0096 9.40428H94.1086C94.1597 11.0612 94.3308 12.615 95.0306 13.3152H92.2998C93.2558 12.3585 93.2388 9.6948 93.2388 7.35464C93.2388 5.01448 93.1537 2.24856 92.2998 1.39404H95.5761C99.3649 1.39404 101.651 2.35074 101.651 5.28796L101.652 5.28897ZM94.1096 7.69724H95.8504C98.8544 7.69724 100.97 7.20237 100.97 5.35709C100.97 3.78629 99.434 3.10308 96.9935 3.10308H94.1096L94.0926 3.03496V7.76536L94.1096 7.69724Z" fill="white"/>
</svg>
