<svg width="249" height="28" viewBox="0 0 249 28" fill="none" xmlns="http://www.w3.org/2000/svg">
<path d="M98.5092 27.4342C91.2857 27.4342 85.4082 23.1767 85.4082 17.9431C85.4082 16.4672 85.8751 15.0196 86.763 13.7161C85.8751 12.4127 85.4082 10.9651 85.4082 9.48915C85.4082 4.25561 91.2857 -0.00195312 98.5092 -0.00195312C105.733 -0.00195312 111.61 4.25561 111.61 9.48915C111.61 10.9651 111.143 12.4127 110.255 13.7161C111.143 15.0196 111.61 16.4672 111.61 17.9431C111.61 23.1767 105.733 27.4342 98.5092 27.4342ZM98.5092 1.91286C92.3394 1.91286 87.3215 5.31236 87.3215 9.49133C87.3215 10.7533 87.7971 12.0066 88.6982 13.1135L89.1891 13.7183L88.6982 14.3209C87.7971 15.4279 87.3215 16.6812 87.3215 17.9431C87.3215 22.1221 92.3416 25.5216 98.5092 25.5216C104.677 25.5216 109.697 22.1221 109.697 17.9431C109.697 16.6812 109.221 15.4279 108.32 14.3209L107.829 13.7161L108.32 13.1114C109.221 12.0044 109.697 10.7511 109.697 9.48915C109.697 5.31018 104.677 1.91068 98.5092 1.91068V1.91286Z" fill="white"/>
<path d="M190.982 26.5976V0.853516H208.881C214.654 0.853516 216.977 5.15693 216.977 8.95599C216.977 11.9407 215.428 15.314 211.554 16.4384C211.554 16.4777 211.593 16.4777 211.593 16.517L217.715 26.5976H209.889L204.001 16.827H197.918V26.5976H190.982ZM197.916 10.5848H208.879C209.614 10.5848 210.042 10.0411 210.042 9.18961V8.49094C210.042 7.63724 209.616 7.09576 208.879 7.09576H197.916V10.5848Z" fill="white"/>
<path d="M238.509 0.923828H229.996L219.755 26.4125H226.935L234.176 7.96519L241.535 26.4125H248.715L238.513 0.923828H238.509Z" fill="white"/>
<path d="M122.768 21.7529V26.4122C119.642 26.3401 116.692 25.0257 114.596 22.8555L117.225 18.659C118.54 19.9756 120.742 21.504 122.768 21.7529ZM126.213 19.4429C126.213 17.7005 123.726 16.563 122.376 15.8862C121.381 15.3884 120.386 14.8556 119.498 14.3578C116.976 12.8993 115.305 11.1221 115.305 8.02823C115.305 3.40604 119.001 1.12879 122.766 0.879883V5.60906C121.557 5.82303 120.704 6.46275 120.704 7.77714C120.704 8.84481 121.664 9.66139 122.801 10.3382C123.938 11.05 125.323 11.6897 126.532 12.3295C129.409 13.8949 131.648 15.5652 131.648 19.2289C131.648 23.6742 128.201 25.9842 124.186 26.3772V21.7179C125.572 21.4341 126.211 20.4734 126.211 19.4429H126.213ZM130.941 3.8318L128.419 7.81426C127.459 6.5348 125.718 5.68111 124.191 5.57412V0.879883C126.82 1.0218 129.414 2.15934 130.943 3.8318H130.941Z" fill="white"/>
<path d="M38.8649 13.7248V4.05469C36.0876 4.05469 32.3853 4.42586 29.3506 7.20311V0.794922H50.3799V7.20529C47.5655 4.16604 43.0123 4.01976 40.7172 4.01976V13.727C40.7172 18.8033 40.6059 24.5085 42.7527 26.6591H36.8294C38.902 24.5849 38.8649 18.8033 38.8649 13.727V13.7248Z" fill="white"/>
<path d="M53.8262 26.5783C55.8835 24.5194 55.8464 18.7837 55.8464 13.7467C55.8464 8.70966 55.6632 2.75343 53.8262 0.915039H61.9813C60.8054 2.97395 62.2017 8.70966 64.7368 15.548C65.6553 18.0108 67.0145 21.871 67.97 24.4823C68.7773 21.871 70.0274 17.8274 70.9459 14.9606C72.9661 8.70966 74.1791 3.04819 72.8199 0.917222H82.0398C80.3489 2.60933 80.0195 8.67473 80.0195 13.7489C80.0195 18.823 79.9082 24.4474 82.0398 26.5805H76.1623C78.2196 24.5216 78.1825 18.7859 78.1825 13.7489C78.1825 10.2926 78.0713 6.43241 77.4473 3.78617C75.7216 6.58088 74.214 10.8079 72.6716 15.5502C71.6069 18.858 70.2477 24.7421 70.4681 26.5805H65.0313C65.5462 24.8884 64.1128 18.8601 62.6795 14.9628C61.2832 11.1769 59.8498 7.57213 58.2354 4.88877C57.7947 7.42584 57.6834 10.7708 57.6834 13.7489C57.6834 18.7859 57.5721 24.4474 59.7036 26.5805H53.8262V26.5783Z" fill="white"/>
<path d="M137.982 26.6574C140.053 24.5854 140.016 18.8148 140.016 13.7472C140.016 8.67957 139.83 2.68623 137.982 0.836914H156.649V7.23636C153.581 3.68621 148.11 3.0574 144.525 3.0574C143.417 3.0574 142.455 3.09452 141.864 3.16875V12.5267C142.752 12.638 143.637 12.6751 144.525 12.6751C147.335 12.6751 150.551 12.269 153.211 10.9743V16.5222C150.549 15.2646 147.333 14.8585 144.525 14.8585C143.637 14.8585 142.752 14.8956 141.864 15.007C141.864 19.7056 141.938 24.6989 143.897 26.6596H137.982V26.6574Z" fill="white"/>
<path d="M163.271 2.47654C162.715 2.97871 162.298 3.5835 162.021 4.28873C161.845 4.7385 161.725 5.23413 161.663 5.76905C161.629 6.05289 161.613 6.34983 161.613 6.65769C161.613 7.5616 161.753 8.36289 162.03 9.06376C162.15 9.37161 162.298 9.662 162.475 9.93055C163.049 10.8083 163.791 11.4742 164.7 11.9305C164.713 11.9371 164.727 11.9436 164.742 11.9502C164.753 11.9567 164.764 11.9611 164.779 11.9655C164.967 12.0506 165.324 12.186 165.872 12.3126H165.998C166.546 12.3126 166.969 12.4043 167.268 12.5943C167.301 12.6117 167.331 12.6314 167.36 12.6554C167.604 12.841 167.753 13.0899 167.796 13.4065C167.801 13.4305 167.805 13.4545 167.807 13.4785C167.814 13.5287 167.816 13.5811 167.816 13.6335C167.816 13.7034 167.811 13.7733 167.803 13.8388C167.79 13.9458 167.766 14.0462 167.735 14.1401C167.639 14.4305 167.454 14.6772 167.179 14.8824C167.131 14.9195 167.081 14.9523 167.03 14.9829C166.98 15.0134 166.93 15.0418 166.878 15.068C166.867 15.0746 166.856 15.0811 166.845 15.0833C166.81 15.1008 166.775 15.1161 166.736 15.1292C166.712 15.1423 166.688 15.151 166.664 15.1597C166.612 15.1794 166.559 15.1968 166.505 15.2143C165.944 15.3999 165.268 15.4938 164.792 15.7034C164.759 15.7165 164.729 15.7339 164.7 15.747C164.644 15.7754 164.587 15.806 164.532 15.8366C164.089 16.0767 163.688 16.3693 163.328 16.7165C163.282 16.7601 163.239 16.806 163.193 16.8496C163.103 16.9392 163.02 17.033 162.938 17.1291C162.772 17.3213 162.619 17.5287 162.475 17.7492C162.298 18.0177 162.15 18.306 162.03 18.616C162.146 18.9195 162.287 19.2077 162.453 19.4762C163.014 20.3845 163.747 21.0657 164.655 21.5221C164.949 21.6683 165.255 21.7972 165.566 21.9063C165.715 21.9587 165.863 22.0068 166.016 22.0482V22.7491L163.472 22.1574H162.019V23.3932C162.253 23.9827 162.582 24.5023 163.012 24.9521C163.095 25.0395 163.178 25.1224 163.269 25.2032C164.375 26.2032 165.94 26.7032 167.969 26.7032H185.223V20.1596H169.238C168.634 20.1596 168.18 20.0461 167.877 19.8168C167.576 19.5898 167.423 19.2644 167.423 18.8387C167.423 18.7688 167.427 18.699 167.436 18.6335C167.427 18.568 167.423 18.4981 167.423 18.4304C167.423 18.0068 167.576 17.6793 167.877 17.4523C168.18 17.2252 168.634 17.1095 169.238 17.1095H185.223V10.5659H169.238C168.634 10.5659 168.18 10.4524 167.877 10.2253C167.576 9.99824 167.423 9.67292 167.423 9.24716C167.423 9.17729 167.427 9.10742 167.436 9.04192C167.427 8.97642 167.423 8.90655 167.423 8.83669C167.423 8.4153 167.576 8.08561 167.877 7.85854C168.18 7.63147 168.634 7.51793 169.238 7.51793H185.223V0.976562H167.969C165.94 0.976562 164.373 1.47437 163.269 2.47654H163.271Z" fill="white"/>
<path d="M163.271 2.47654C162.715 2.97871 162.298 3.5835 162.021 4.28873V5.52233H163.474L166.018 4.93064V5.62932C165.87 5.6708 165.721 5.71884 165.575 5.76905C165.259 5.87822 164.951 6.00923 164.655 6.15769C163.747 6.61183 163.014 7.29304 162.453 8.20351C162.287 8.47206 162.146 8.76027 162.03 9.06376C162.15 9.37161 162.298 9.662 162.475 9.93055C163.049 10.8083 163.791 11.4742 164.7 11.9305C164.713 11.9371 164.727 11.9436 164.742 11.9502C164.753 11.9567 164.764 11.9611 164.779 11.9655C164.967 12.0506 165.324 12.186 165.872 12.3126C166.356 12.4261 166.965 12.4261 167.268 12.5943C167.303 12.6095 167.334 12.6314 167.36 12.6554C167.589 12.8606 167.746 13.0986 167.796 13.4065C167.801 13.4305 167.805 13.4545 167.807 13.4785C167.814 13.5287 167.816 13.5811 167.816 13.6335C167.816 13.7034 167.811 13.7733 167.803 13.8388C167.79 13.9458 167.766 14.0462 167.735 14.1401C167.635 14.4261 167.443 14.6663 167.179 14.8824C167.133 14.9195 167.083 14.9545 167.03 14.9829C166.982 15.0156 166.932 15.044 166.878 15.068C166.867 15.0746 166.856 15.0811 166.845 15.0833C166.81 15.1008 166.775 15.1161 166.736 15.1292C166.712 15.1423 166.688 15.151 166.664 15.1597C166.612 15.1794 166.559 15.1968 166.505 15.2143C165.944 15.3999 165.268 15.4938 164.792 15.7034C164.759 15.7165 164.729 15.7339 164.7 15.747C164.644 15.7754 164.587 15.806 164.532 15.8366C164.089 16.0789 163.688 16.3737 163.328 16.7165C163.282 16.7601 163.239 16.806 163.193 16.8496C163.106 16.9392 163.02 17.033 162.938 17.1291C162.772 17.3213 162.619 17.5287 162.475 17.7492C162.298 18.0177 162.15 18.306 162.03 18.616C161.753 19.3169 161.613 20.1181 161.613 21.0221C161.613 21.3299 161.629 21.6225 161.663 21.9063C161.725 22.4434 161.845 22.9369 162.021 23.3932C162.255 23.9827 162.584 24.5023 163.014 24.9521C163.097 25.0395 163.18 25.1224 163.271 25.2032C164.377 26.2032 165.942 26.7032 167.971 26.7032H185.226V20.1596H169.24C168.636 20.1596 168.182 20.0461 167.879 19.8168C167.578 19.5898 167.425 19.2644 167.425 18.8387C167.425 18.7688 167.43 18.699 167.438 18.6335C167.43 18.568 167.425 18.4981 167.425 18.4304C167.425 18.0068 167.578 17.6793 167.879 17.4523C168.182 17.2252 168.636 17.1095 169.24 17.1095H185.226V10.5659H169.24C168.636 10.5659 168.182 10.4524 167.879 10.2253C167.578 9.99824 167.425 9.67292 167.425 9.24716C167.425 9.17729 167.43 9.10742 167.438 9.04192C167.43 8.97642 167.425 8.90655 167.425 8.83669C167.425 8.4153 167.578 8.08561 167.879 7.85854C168.182 7.63147 168.636 7.51793 169.24 7.51793H185.226V0.976562H167.971C165.942 0.976562 164.375 1.47437 163.271 2.47654Z" fill="white"/>
<path d="M165.482 12.212C165.482 12.212 166.208 12.4042 166.575 12.4937C167.107 12.6225 167.855 12.8583 167.823 13.7273C167.766 15.2011 169.014 13.4326 169.014 13.4326L167.316 11.5811L165.479 12.212H165.482Z" fill="white"/>
<path d="M0.290039 26.6683L10.64 0.911133H19.2445L29.5552 26.6683H22.1135L19.7092 20.5789H10.0182L7.65323 26.6683H0.290039ZM12.4224 14.3716H17.3443L14.8244 8.3979L12.4202 14.3716H12.4224Z" fill="white"/>
</svg>
