<svg width="62" height="62" viewBox="0 0 62 62" fill="none" xmlns="http://www.w3.org/2000/svg">
<path d="M38.5633 15H22.4973C18.3575 15 15 18.3575 15 22.4973V38.5633C15 42.7031 18.3575 46.0606 22.4973 46.0606H38.5633C42.7031 46.0606 46.0606 42.7031 46.0606 38.5633V22.4973C46.0606 18.3575 42.7031 15 38.5633 15ZM43.3827 38.0268C43.3827 40.9834 40.9834 43.3827 38.0268 43.3827H23.0323C20.0757 43.3827 17.6764 40.9834 17.6764 38.0268V23.0323C17.6764 20.0757 20.0757 17.6764 23.0323 17.6764H38.0268C40.9834 17.6764 43.3827 20.0757 43.3827 23.0323V38.0268Z" fill="black"/>
<path d="M30.5464 22.4969C26.113 22.4969 22.5142 26.0958 22.5142 30.5292C22.5142 34.9626 26.113 38.5615 30.5464 38.5615C34.9798 38.5615 38.5787 34.9626 38.5787 30.5292C38.5787 26.0958 34.9798 22.4969 30.5464 22.4969ZM30.5464 35.8851C27.5958 35.8851 25.1906 33.4799 25.1906 30.5292C25.1906 27.5786 27.5958 25.1734 30.5464 25.1734C33.4971 25.1734 35.9023 27.5786 35.9023 30.5292C35.9023 33.4799 33.4971 35.8851 30.5464 35.8851Z" fill="black"/>
<path d="M39.1133 23.5684C38.2281 23.5684 37.5068 22.8471 37.5068 21.9619C37.5068 21.0767 38.2281 20.3555 39.1133 20.3555C39.9985 20.3555 40.7197 21.0767 40.7197 21.9619C40.7197 22.8471 39.9985 23.5684 39.1133 23.5684Z" fill="black"/>
</svg>
