<svg width="25" height="25" viewBox="0 0 25 25" fill="none" xmlns="http://www.w3.org/2000/svg">
<path d="M18.9656 0H6.0344C2.70235 0 0 2.70235 0 6.0344V18.9656C0 22.2977 2.70235 25 6.0344 25H18.9656C22.2977 25 25 22.2977 25 18.9656V6.0344C25 2.70235 22.2977 0 18.9656 0ZM22.8446 18.5338C22.8446 20.9135 20.9135 22.8446 18.5338 22.8446H6.465C4.0853 22.8446 2.1542 20.9135 2.1542 18.5338V6.465C2.1542 4.0853 4.0853 2.1542 6.465 2.1542H18.5338C20.9135 2.1542 22.8446 4.0853 22.8446 6.465V18.5338Z" fill="white"/>
<path d="M12.5129 6.03442C8.94451 6.03442 6.04785 8.93108 6.04785 12.4994C6.04785 16.0678 8.94451 18.9644 12.5129 18.9644C16.0812 18.9644 18.9779 16.0678 18.9779 12.4994C18.9779 8.93108 16.0812 6.03442 12.5129 6.03442ZM12.5129 16.8102C10.138 16.8102 8.20205 14.8743 8.20205 12.4994C8.20205 10.1245 10.138 8.18862 12.5129 8.18862C14.8878 8.18862 16.8237 10.1245 16.8237 12.4994C16.8237 14.8743 14.8878 16.8102 12.5129 16.8102Z" fill="white"/>
<path d="M19.4082 6.89679C18.6958 6.89679 18.1152 6.31626 18.1152 5.60379C18.1152 4.89132 18.6958 4.31079 19.4082 4.31079C20.1207 4.31079 20.7012 4.89132 20.7012 5.60379C20.7012 6.31626 20.1207 6.89679 19.4082 6.89679Z" fill="white"/>
</svg>
