<svg width="29" height="30" viewBox="0 0 29 30" fill="none" xmlns="http://www.w3.org/2000/svg">
<path d="M3.86677 7.82649C6.00232 7.82649 7.73353 6.07447 7.73353 3.91324C7.73353 1.75202 6.00232 0 3.86677 0C1.73121 0 0 1.75202 0 3.91324C0 6.07447 1.73121 7.82649 3.86677 7.82649Z" fill="white"/>
<path d="M6.79956 10.4353H0.932165C0.77277 10.4353 0.643555 10.5661 0.643555 10.7274V29.7079C0.643555 29.8692 0.77277 30 0.932165 30H6.79956C6.95895 30 7.08817 29.8692 7.08817 29.7079V10.7274C7.08817 10.5661 6.95895 10.4353 6.79956 10.4353Z" fill="white"/>
<path d="M29.0003 17.6088V28.6956C29.0003 29.4128 28.4201 30 27.7114 30H23.8446C23.1359 30 22.5557 29.4128 22.5557 28.6956V19.5647C22.5557 17.7648 21.1126 16.3044 19.3341 16.3044C17.5556 16.3044 16.1126 17.7648 16.1126 19.5647V28.6956C16.1126 29.4128 15.5323 30 14.8237 30H10.9569C10.2482 30 9.66797 29.4128 9.66797 28.6956V11.7382C9.66797 11.021 10.2482 10.4338 10.9569 10.4338H14.8237C15.5323 10.4338 16.1126 11.021 16.1126 11.7382V12.5732C17.4015 10.8834 19.5351 9.78235 21.912 9.78235C25.469 9.78235 29.0003 12.3912 29.0003 17.6088Z" fill="white"/>
</svg>
