<svg width="178" height="20" viewBox="0 0 178 20" fill="none" xmlns="http://www.w3.org/2000/svg">
<g clip-path="url(#clip0_1_6)">
<path d="M70.3764 19.642C65.2006 19.642 60.9893 16.5937 60.9893 12.8466C60.9893 11.7899 61.3238 10.7534 61.96 9.8202C61.3238 8.88695 60.9893 7.85053 60.9893 6.79379C60.9893 3.04674 65.2006 -0.0015564 70.3764 -0.0015564C75.5523 -0.0015564 79.7636 3.04674 79.7636 6.79379C79.7636 7.85053 79.4291 8.88695 78.7929 9.8202C79.4291 10.7534 79.7636 11.7899 79.7636 12.8466C79.7636 16.5937 75.5523 19.642 70.3764 19.642ZM70.3764 1.36939C65.9556 1.36939 62.3602 3.80334 62.3602 6.79536C62.3602 7.6989 62.701 8.59619 63.3466 9.38875L63.6983 9.82176L63.3466 10.2532C62.701 11.0458 62.3602 11.9431 62.3602 12.8466C62.3602 15.8386 65.9572 18.2726 70.3764 18.2726C74.7957 18.2726 78.3927 15.8386 78.3927 12.8466C78.3927 11.9431 78.0519 11.0458 77.4063 10.2532L77.0545 9.8202L77.4063 9.38719C78.0519 8.59463 78.3927 7.69734 78.3927 6.79379C78.3927 3.80178 74.7957 1.36783 70.3764 1.36783V1.36939Z" fill="white"/>
<path d="M136.636 19.0432V0.611237H149.46C153.597 0.611237 155.262 3.69236 155.262 6.41237C155.262 8.5493 154.152 10.9645 151.375 11.7696C151.375 11.7977 151.404 11.7977 151.404 11.8258L155.79 19.0432H150.183L145.964 12.0478H141.605V19.0432H136.636ZM141.604 7.57854H149.459C149.986 7.57854 150.292 7.1893 150.292 6.57964V6.07941C150.292 5.46818 149.987 5.0805 149.459 5.0805H141.604V7.57854Z" fill="white"/>
<path d="M170.688 0.661255H164.589L157.251 18.9104H162.396L167.584 5.70266L172.857 18.9104H178.001L170.692 0.661255H170.688Z" fill="white"/>
<path d="M87.7582 15.5744V18.9104C85.5181 18.8588 83.4046 17.9177 81.9023 16.3639L83.786 13.3593C84.7287 14.302 86.306 15.3962 87.7582 15.5744ZM90.2281 13.9205C90.2281 12.6731 88.446 11.8586 87.4784 11.374C86.7655 11.0176 86.0527 10.6362 85.4165 10.2798C83.6094 9.23554 82.412 7.96307 82.412 5.74798C82.412 2.43863 85.0601 0.808182 87.7582 0.629974V4.01592C86.8922 4.16912 86.2809 4.62715 86.2809 5.56821C86.2809 6.33263 86.9688 6.91727 87.7832 7.40188C88.5976 7.91149 89.5903 8.36951 90.4563 8.82754C92.5182 9.94837 94.1221 11.1442 94.1221 13.7673C94.1221 16.9501 91.6522 18.604 88.7759 18.8853V15.5494C89.7685 15.3462 90.2265 14.6584 90.2265 13.9205H90.2281ZM93.614 2.74346L91.8069 5.59478C91.1191 4.67873 89.8717 4.06751 88.7774 3.99091V0.629974C90.6611 0.731584 92.5198 1.54603 93.6156 2.74346H93.614Z" fill="white"/>
<path d="M27.6395 9.82643V2.9029C25.6495 2.9029 22.9967 3.16865 20.8223 5.15707V0.569H35.8902V5.15864C33.8736 2.98262 30.6112 2.87789 28.9667 2.87789V9.828C28.9667 13.4625 28.887 17.5472 30.4252 19.087H26.181C27.6661 17.6019 27.6395 13.4625 27.6395 9.828V9.82643Z" fill="white"/>
<path d="M38.3604 19.0292C39.8345 17.555 39.8079 13.4485 39.8079 9.84209C39.8079 6.23572 39.6766 1.97124 38.3604 0.654999H44.2037C43.3611 2.12912 44.3616 6.23572 46.1781 11.1317C46.8362 12.8951 47.8101 15.6589 48.4948 17.5285C49.0731 15.6589 49.9689 12.7638 50.627 10.7112C52.0745 6.23572 52.9437 2.18227 51.9698 0.656562H58.576C57.3645 1.86806 57.1285 6.21071 57.1285 9.84365C57.1285 13.4766 57.0487 17.5035 58.576 19.0307H54.3647C55.8388 17.5566 55.8122 13.45 55.8122 9.84365C55.8122 7.36906 55.7325 4.60527 55.2854 2.71064C54.0489 4.71157 52.9687 7.73798 51.8635 11.1333C51.1007 13.5016 50.1268 17.7145 50.2847 19.0307H46.3891C46.758 17.8192 45.731 13.5032 44.7039 10.7128C43.7035 8.00217 42.6764 5.42128 41.5196 3.50007C41.2039 5.31654 41.1241 7.71141 41.1241 9.84365C41.1241 13.45 41.0444 17.5035 42.5717 19.0307H38.3604V19.0292Z" fill="white"/>
<path d="M98.6611 19.0854C100.145 17.6019 100.118 13.4703 100.118 9.84209C100.118 6.21384 99.9852 1.92278 98.6611 0.598724H112.036V5.18054C109.838 2.63874 105.918 2.18853 103.349 2.18853C102.555 2.18853 101.866 2.2151 101.442 2.26825V8.96824C102.078 9.04797 102.713 9.07454 103.349 9.07454C105.363 9.07454 107.667 8.78378 109.572 7.85679V11.8289C107.665 10.9285 105.361 10.6378 103.349 10.6378C102.713 10.6378 102.078 10.6643 101.442 10.7441C101.442 14.1081 101.495 17.6832 102.899 19.087H98.6611V19.0854Z" fill="white"/>
<path d="M116.781 1.7727C116.382 2.13224 116.084 2.56525 115.885 3.07018C115.758 3.3922 115.672 3.74705 115.629 4.13005C115.604 4.33326 115.593 4.54586 115.593 4.76628C115.593 5.41345 115.693 5.98716 115.891 6.48895C115.977 6.70937 116.084 6.91728 116.21 7.10956C116.621 7.73797 117.153 8.21476 117.805 8.54147C117.814 8.54616 117.823 8.55085 117.834 8.55554C117.842 8.56023 117.85 8.56336 117.861 8.56648C117.995 8.62745 118.252 8.72437 118.644 8.81504H118.735C119.127 8.81504 119.43 8.88069 119.645 9.01669C119.668 9.0292 119.69 9.04327 119.71 9.06046C119.885 9.19334 119.992 9.37155 120.023 9.59821C120.026 9.61541 120.029 9.6326 120.031 9.6498C120.035 9.68575 120.037 9.72327 120.037 9.76079C120.037 9.81081 120.034 9.86084 120.028 9.90773C120.018 9.98433 120.001 10.0562 119.979 10.1235C119.91 10.3314 119.778 10.508 119.581 10.655C119.546 10.6815 119.51 10.705 119.474 10.7269C119.438 10.7487 119.402 10.7691 119.365 10.7878C119.357 10.7925 119.349 10.7972 119.341 10.7988C119.316 10.8113 119.291 10.8222 119.263 10.8316C119.246 10.841 119.229 10.8472 119.212 10.8535C119.174 10.8676 119.137 10.8801 119.098 10.8926C118.696 11.0254 118.211 11.0927 117.87 11.2427C117.847 11.2521 117.825 11.2646 117.805 11.274C117.764 11.2943 117.723 11.3162 117.684 11.3381C117.367 11.51 117.079 11.7195 116.821 11.9681C116.789 11.9993 116.757 12.0322 116.725 12.0634C116.66 12.1275 116.601 12.1947 116.542 12.2635C116.423 12.4011 116.313 12.5496 116.21 12.7075C116.084 12.8997 115.977 13.1061 115.891 13.3281C115.974 13.5454 116.076 13.7517 116.195 13.944C116.596 14.5943 117.122 15.082 117.772 15.4087C117.983 15.5135 118.202 15.6057 118.425 15.6839C118.532 15.7214 118.638 15.7558 118.747 15.7855V16.2873L116.925 15.8636H115.884V16.7484C116.051 17.1705 116.287 17.5425 116.595 17.8646C116.654 17.9271 116.714 17.9865 116.779 18.0443C117.572 18.7603 118.693 19.1183 120.146 19.1183H132.51V14.4333H121.056C120.623 14.4333 120.298 14.352 120.081 14.1878C119.865 14.0253 119.756 13.7924 119.756 13.4875C119.756 13.4375 119.759 13.3875 119.765 13.3406C119.759 13.2937 119.756 13.2437 119.756 13.1952C119.756 12.8919 119.865 12.6574 120.081 12.4949C120.298 12.3323 120.623 12.2494 121.056 12.2494H132.51V7.56446H121.056C120.623 7.56446 120.298 7.48317 120.081 7.32059C119.865 7.15802 119.756 6.9251 119.756 6.62027C119.756 6.57024 119.759 6.52022 119.765 6.47332C119.759 6.42643 119.756 6.3764 119.756 6.32638C119.756 6.02468 119.865 5.78863 120.081 5.62605C120.298 5.46348 120.623 5.38219 121.056 5.38219H132.51V0.698761H120.146C118.693 0.698761 117.57 1.05518 116.779 1.7727H116.781Z" fill="white"/>
<path d="M116.781 1.7727C116.382 2.13224 116.084 2.56525 115.885 3.07018V3.9534H116.926L118.749 3.52977V4.03C118.643 4.0597 118.536 4.09409 118.432 4.13005C118.205 4.20821 117.985 4.302 117.772 4.4083C117.122 4.73345 116.596 5.22118 116.195 5.87304C116.076 6.06532 115.974 6.27167 115.891 6.48895C115.977 6.70937 116.084 6.91728 116.21 7.10956C116.621 7.73797 117.153 8.21476 117.805 8.54147C117.814 8.54616 117.823 8.55085 117.834 8.55554C117.842 8.56023 117.85 8.56336 117.861 8.56648C117.995 8.62745 118.252 8.72437 118.644 8.81504C118.991 8.89633 119.427 8.89633 119.645 9.01669C119.67 9.02764 119.692 9.04327 119.71 9.06046C119.874 9.20741 119.987 9.3778 120.023 9.59821C120.026 9.61541 120.029 9.6326 120.031 9.6498C120.035 9.68575 120.037 9.72327 120.037 9.76079C120.037 9.81081 120.034 9.86084 120.028 9.90773C120.018 9.98433 120.001 10.0562 119.979 10.1235C119.907 10.3282 119.77 10.5002 119.581 10.655C119.548 10.6815 119.512 10.7065 119.474 10.7269C119.44 10.7503 119.404 10.7706 119.365 10.7878C119.357 10.7925 119.349 10.7972 119.341 10.7988C119.316 10.8113 119.291 10.8222 119.263 10.8316C119.246 10.841 119.229 10.8472 119.212 10.8535C119.174 10.8676 119.137 10.8801 119.098 10.8926C118.696 11.0254 118.211 11.0927 117.87 11.2427C117.847 11.2521 117.825 11.2646 117.805 11.274C117.764 11.2943 117.723 11.3162 117.684 11.3381C117.367 11.5116 117.079 11.7226 116.821 11.9681C116.789 11.9993 116.757 12.0322 116.725 12.0634C116.662 12.1275 116.601 12.1947 116.542 12.2635C116.423 12.4011 116.313 12.5496 116.21 12.7075C116.084 12.8997 115.977 13.1061 115.891 13.3281C115.693 13.8299 115.593 14.4036 115.593 15.0508C115.593 15.2712 115.604 15.4806 115.629 15.6839C115.672 16.0684 115.758 16.4217 115.885 16.7484C116.052 17.1705 116.288 17.5425 116.596 17.8646C116.656 17.9271 116.715 17.9865 116.781 18.0443C117.573 18.7603 118.694 19.1183 120.148 19.1183H132.512V14.4333H121.058C120.625 14.4333 120.3 14.352 120.082 14.1878C119.867 14.0253 119.757 13.7924 119.757 13.4875C119.757 13.4375 119.76 13.3875 119.767 13.3406C119.76 13.2937 119.757 13.2437 119.757 13.1952C119.757 12.8919 119.867 12.6574 120.082 12.4949C120.3 12.3323 120.625 12.2494 121.058 12.2494H132.512V7.56446H121.058C120.625 7.56446 120.3 7.48317 120.082 7.32059C119.867 7.15802 119.757 6.9251 119.757 6.62027C119.757 6.57024 119.76 6.52022 119.767 6.47332C119.76 6.42643 119.757 6.3764 119.757 6.32638C119.757 6.02468 119.867 5.78863 120.082 5.62605C120.3 5.46348 120.625 5.38219 121.058 5.38219H132.512V0.698761H120.148C118.694 0.698761 117.572 1.05518 116.781 1.7727Z" fill="white"/>
<path d="M118.363 8.74312C118.363 8.74312 118.883 8.88069 119.146 8.94478C119.527 9.03701 120.064 9.20584 120.04 9.828C120 10.8832 120.894 9.61697 120.894 9.61697L119.678 8.29135L118.361 8.74312H118.363Z" fill="white"/>
<path d="M0 19.0932L7.41595 0.651855H13.5813L20.9691 19.0932H15.637L13.9143 14.7334H6.97043L5.27589 19.0932H0ZM8.69311 10.2892H12.2197L10.4142 6.01216L8.69154 10.2892H8.69311Z" fill="white"/>
</g>
<defs>
<clipPath id="clip0_1_6">
<rect width="178" height="19.642" fill="white"/>
</clipPath>
</defs>
</svg>
