<svg width="249" height="27" viewBox="0 0 249 27" fill="none" xmlns="http://www.w3.org/2000/svg">
<path d="M36.4925 6.62995H27.1963V0.387695H52.7635V6.62995H43.428V26.1296H36.4946V6.62995H36.4925Z" fill="white"/>
<path d="M115.055 16.7607H121.679L121.716 17.6908C121.79 19.5161 123.873 19.9637 126.963 19.9637C131.132 19.9637 132.135 18.9943 132.061 17.5423C132.061 16.2017 129.903 15.8655 126.664 15.8655C117.695 15.8655 115.387 12.8852 115.238 8.37873C114.979 1.89849 119.482 0.295898 126.291 0.295898C135.408 0.295898 137.79 3.57313 137.978 8.52719L138.015 9.45731H131.352L131.315 8.52719C131.241 6.7019 129.343 6.25431 126.513 6.25431C122.754 6.25431 121.862 7.11019 121.899 8.37654C121.899 9.60578 123.908 9.90272 126.886 9.90272C136.117 9.90272 138.574 12.9573 138.722 17.538C138.981 24.2431 134.293 25.9177 127.185 25.9177C117.732 25.9177 115.238 22.6405 115.09 17.6864L115.053 16.7563L115.055 16.7607Z" fill="white"/>
<path d="M190.604 26.1369V0.390625H208.505C214.278 0.390625 216.604 4.69404 216.604 8.49528C216.604 11.4799 215.055 14.8554 211.18 15.9799C211.18 16.0192 211.219 16.0192 211.219 16.0585L217.341 26.1391H209.515L203.627 16.3685H197.544V26.1391H190.609L190.604 26.1369ZM197.54 10.1219H208.505C209.24 10.1219 209.668 9.57823 209.668 8.72672V8.02804C209.668 7.17434 209.243 6.63287 208.505 6.63287H197.54V10.1219Z" fill="white"/>
<path d="M19.0565 0.390625H10.417L0.0234375 26.257H7.30809L14.656 7.53679L22.1239 26.257H29.4086L19.0565 0.390625Z" fill="white"/>
<path d="M81.6954 2.11683C81.1434 1.50548 80.478 1.04698 79.7057 0.743489C79.2105 0.54917 78.6672 0.415984 78.0804 0.350483C77.7684 0.313365 77.4433 0.295898 77.1052 0.295898C76.1147 0.295898 75.2333 0.448733 74.4653 0.752221C74.1271 0.885407 73.8086 1.04916 73.5141 1.24348C72.5498 1.87447 71.8189 2.69105 71.3193 3.68885C71.3128 3.70195 71.3062 3.71724 71.2975 3.7347C71.2909 3.74562 71.2866 3.75872 71.28 3.774C71.1884 3.97924 71.0379 4.37225 70.8982 4.97486V5.11459C70.8982 5.71502 70.7957 6.18226 70.5884 6.50976C70.5688 6.5447 70.547 6.57745 70.523 6.61238C70.3201 6.88094 70.0452 7.04251 69.7005 7.09272C69.6743 7.09709 69.6481 7.10146 69.622 7.10364C69.5674 7.11019 69.5085 7.11237 69.4518 7.11237C69.3754 7.11237 69.2991 7.10801 69.2271 7.09927C69.1093 7.08617 69.0002 7.05997 68.8955 7.02504C68.5769 6.91805 68.3064 6.715 68.0817 6.4137C68.0424 6.36129 68.0053 6.30453 67.9704 6.24994C67.9377 6.19536 67.9072 6.13859 67.8788 6.08182C67.8722 6.07091 67.8657 6.0578 67.8613 6.04689C67.8417 6.00977 67.8264 5.97047 67.8112 5.92681C67.7981 5.9006 67.7872 5.8744 67.7784 5.8482C67.7566 5.79144 67.737 5.73248 67.7195 5.67353C67.5166 5.05782 67.4119 4.3133 67.1828 3.79147C67.1676 3.75654 67.1501 3.72379 67.1348 3.68885C67.1043 3.62772 67.0716 3.5644 67.0367 3.50327C66.7749 3.01638 66.452 2.57534 66.0702 2.18015C66.0222 2.12993 65.972 2.07971 65.924 2.03167C65.8258 1.93342 65.7233 1.84172 65.6164 1.75002C65.4048 1.5688 65.1779 1.3985 64.9357 1.2413C64.639 1.04698 64.3248 0.883225 63.9845 0.750039C63.6507 0.878858 63.3365 1.03388 63.0398 1.2151C62.0428 1.83081 61.2966 2.63865 60.7949 3.63645C60.6334 3.96177 60.4916 4.29801 60.3738 4.63862C60.3171 4.80237 60.2625 4.96612 60.2167 5.13424H59.4487L60.0967 2.33735V0.739122H58.7419C58.0961 0.994576 57.5223 1.35701 57.0314 1.83081C56.9354 1.92032 56.8438 2.01421 56.7565 2.11464C55.6592 3.33078 55.1094 5.05127 55.1094 7.28267V26.254H62.2915V8.68003C62.2915 8.0141 62.418 7.5163 62.6667 7.18224C62.9154 6.85037 63.2732 6.68225 63.7401 6.68225C63.8165 6.68225 63.8928 6.68661 63.9648 6.69535C64.0368 6.68661 64.1132 6.68225 64.1874 6.68225C64.6521 6.68225 65.0099 6.85037 65.2608 7.18224C65.5095 7.5163 65.636 8.0141 65.636 8.68003V26.254H72.8181V8.68003C72.8181 8.0141 72.9425 7.5163 73.1912 7.18224C73.4399 6.85037 73.7977 6.68225 74.2646 6.68225C74.3409 6.68225 74.4173 6.68661 74.4893 6.69535C74.5613 6.68661 74.6377 6.68225 74.714 6.68225C75.1765 6.68225 75.5365 6.85037 75.7874 7.18224C76.0361 7.5163 76.1605 8.0141 76.1605 8.68003V26.254H83.3426V7.28267C83.3426 5.05127 82.795 3.33078 81.6954 2.11464V2.11683Z" fill="white"/>
<path d="M81.6954 2.11683C81.1434 1.50548 80.478 1.04698 79.7057 0.74349H78.3531V2.34172L79.001 5.13861H78.2353C78.1894 4.97486 78.1371 4.8111 78.0804 4.65172C77.9604 4.30456 77.8186 3.96614 77.6549 3.64082C77.1553 2.64302 76.407 1.83517 75.41 1.21946C75.1133 1.03606 74.7991 0.881042 74.4653 0.754407C74.1271 0.887592 73.8086 1.05134 73.5141 1.24566C72.5498 1.87666 71.8189 2.69324 71.3193 3.69104C71.3128 3.70414 71.3062 3.71942 71.2975 3.73689C71.2909 3.7478 71.2866 3.7609 71.28 3.77619C71.1884 3.98142 71.0379 4.37443 70.8982 4.97704C70.7739 5.50978 70.7717 6.17789 70.5884 6.51195C70.571 6.54906 70.5492 6.584 70.523 6.61457C70.2983 6.86565 70.0365 7.03814 69.7005 7.09491C69.6743 7.09927 69.6481 7.10364 69.622 7.10582C69.5674 7.11237 69.5085 7.11455 69.4518 7.11455C69.3754 7.11455 69.2991 7.11019 69.2271 7.10146C69.1093 7.08836 69.0002 7.06216 68.8955 7.02722C68.5813 6.91587 68.3173 6.70627 68.0817 6.41588C68.0402 6.36566 68.0031 6.30889 67.9704 6.25213C67.9355 6.19972 67.905 6.14296 67.8788 6.08401C67.8722 6.07309 67.8657 6.05999 67.8613 6.04907C67.8417 6.01196 67.8264 5.97266 67.8112 5.92899C67.7981 5.90279 67.7872 5.87659 67.7784 5.85039C67.7566 5.79362 67.737 5.73467 67.7195 5.67572C67.5166 5.06001 67.4119 4.31548 67.1828 3.79365C67.1676 3.75872 67.1501 3.72597 67.1348 3.69104C67.1043 3.6299 67.0716 3.56658 67.0367 3.50545C66.7705 3.01856 66.4476 2.57752 66.0702 2.18233C66.0222 2.13211 65.972 2.08189 65.924 2.03386C65.8236 1.93779 65.7233 1.84391 65.6164 1.7522C65.4048 1.57098 65.1779 1.40068 64.9357 1.24348C64.639 1.04916 64.3248 0.885407 63.9845 0.752221C63.2165 0.44655 62.3351 0.295898 61.3446 0.295898C61.0065 0.295898 60.6836 0.313365 60.3738 0.350483C59.7847 0.415984 59.2415 0.54917 58.7419 0.74349C58.0961 0.998944 57.5223 1.36138 57.0314 1.83517C56.9354 1.92469 56.8438 2.01858 56.7565 2.11901C55.6592 3.33515 55.1094 5.05564 55.1094 7.28704V26.2583H62.2915V8.6844C62.2915 8.01847 62.418 7.52066 62.6667 7.18661C62.9154 6.85473 63.2732 6.68662 63.7401 6.68662C63.8165 6.68662 63.8928 6.69098 63.9648 6.69972C64.0368 6.69098 64.1132 6.68662 64.1874 6.68662C64.6521 6.68662 65.0099 6.85473 65.2608 7.18661C65.5095 7.52066 65.636 8.01847 65.636 8.6844V26.2583H72.8181V8.6844C72.8181 8.01847 72.9425 7.52066 73.1912 7.18661C73.4399 6.85473 73.7977 6.68662 74.2646 6.68662C74.3409 6.68662 74.4173 6.69098 74.4893 6.69972C74.5613 6.69098 74.6377 6.68662 74.714 6.68662C75.1765 6.68662 75.5365 6.85473 75.7874 7.18661C76.0361 7.52066 76.1605 8.01847 76.1605 8.6844V26.2583H83.3426V7.28704C83.3426 5.05564 82.795 3.33515 81.6954 2.11901V2.11683Z" fill="white"/>
<path d="M71.007 4.54492C71.007 4.54492 70.7976 5.34403 70.6994 5.74796C70.5576 6.3331 70.3001 7.15623 69.3446 7.11911C67.7279 7.05798 69.6674 8.42914 69.6674 8.42914L71.7008 6.56454L71.007 4.54492Z" fill="white"/>
<path d="M144.966 0.180664H150.523V10.8966H159.23V15.9402H150.523V26.1365H144.966V0.180664ZM152.006 0.180664H160.676V5.18713H152.006V0.180664Z" fill="white"/>
<path d="M98.8063 0.274414C105.755 0.274414 110.374 5.25686 110.374 13.141C110.374 21.0251 105.753 26.0076 98.8063 26.0076C91.8598 26.0076 87.2041 20.9902 87.2041 13.141C87.2041 5.29179 91.8598 0.274414 98.8063 0.274414ZM98.8063 22.4225C104.895 22.4225 108.582 18.8025 108.582 13.141C108.582 7.47953 104.893 3.8595 98.8063 3.8595C92.7194 3.8595 88.9931 7.44241 88.9931 13.141C88.9931 18.8396 92.7172 22.4225 98.8063 22.4225Z" fill="white"/>
<path d="M167.531 13.126C167.531 8.02779 167.162 2.08248 165.316 0.235352H184.029V6.62607C180.929 3.08028 175.429 2.41435 171.848 2.41435C170.814 2.41435 169.966 2.45147 169.377 2.52571V11.9448C170.225 12.0561 171.074 12.0561 171.923 12.0561C174.728 12.0561 177.94 11.65 180.597 10.3574V15.8988C177.94 14.6434 174.728 14.2373 171.923 14.2373C171.074 14.2373 170.225 14.2373 169.377 14.3486V23.7306C169.968 23.8048 170.816 23.8419 171.848 23.8419C175.391 23.8419 180.929 23.176 184.029 19.5931V26.0209H165.316C167.162 24.1738 167.531 18.2263 167.531 13.1303V13.126Z" fill="white"/>
<path d="M248.976 26.1166H235.273V14.3002H233.416V26.1166H219.713L230.061 0.359375H238.665L248.976 26.1166Z" fill="white"/>
</svg>
