<svg width="117" height="59" viewBox="0 0 117 59" fill="none" xmlns="http://www.w3.org/2000/svg">
<path d="M18.1198 25.5184H13.8545V22.6543H25.5853V25.5184H21.302V34.4653H18.1208V25.5184H18.1198Z" fill="white"/>
<path d="M54.1651 30.1667H57.2041L57.2211 30.5935C57.2552 31.431 58.2111 31.6363 59.6286 31.6363C61.5415 31.6363 62.002 31.1916 61.9679 30.5254C61.9679 29.9103 60.9779 29.756 59.4914 29.756C55.3763 29.756 54.3172 28.3886 54.2492 26.3209C54.13 23.3476 56.1961 22.6123 59.3203 22.6123C63.5035 22.6123 64.5966 24.116 64.6827 26.389L64.6997 26.8158H61.6426L61.6256 26.389C61.5916 25.5515 60.7207 25.3462 59.4224 25.3462C57.6976 25.3462 57.2882 25.7389 57.3052 26.3199C57.3052 26.8839 58.2272 27.0201 59.5935 27.0201C63.8288 27.0201 64.9559 28.4216 65.024 30.5234C65.1431 33.5998 62.992 34.3682 59.7307 34.3682C55.3933 34.3682 54.2492 32.8645 54.1811 30.5915L54.1641 30.1647L54.1651 30.1667Z" fill="white"/>
<path d="M88.8301 34.4683V22.6553H97.0434C99.692 22.6553 100.759 24.6298 100.759 26.3739C100.759 27.7433 100.048 29.2921 98.2706 29.808C98.2706 29.826 98.2886 29.826 98.2886 29.8441L101.097 34.4693H97.5068L94.8051 29.9863H92.0143V34.4693H88.8321L88.8301 34.4683ZM92.0123 27.1202H97.0434C97.3807 27.1202 97.5769 26.8708 97.5769 26.4801V26.1595C97.5769 25.7678 97.3817 25.5194 97.0434 25.5194H92.0123V27.1202Z" fill="white"/>
<path d="M10.1195 22.6553H6.15553L1.38672 34.5234H4.72909L8.10049 25.9341L11.5269 34.5234H14.8693L10.1195 22.6553Z" fill="white"/>
<path d="M38.8585 23.4478C38.6052 23.1673 38.2999 22.9569 37.9455 22.8177C37.7183 22.7285 37.4691 22.6674 37.1998 22.6373C37.0566 22.6203 36.9075 22.6123 36.7523 22.6123C36.2979 22.6123 35.8935 22.6824 35.5411 22.8217C35.386 22.8828 35.2398 22.9579 35.1047 23.0471C34.6622 23.3366 34.3269 23.7113 34.0977 24.1691C34.0947 24.1751 34.0916 24.1821 34.0876 24.1901C34.0846 24.1951 34.0826 24.2011 34.0796 24.2081C34.0376 24.3023 33.9685 24.4826 33.9045 24.7591V24.8232C33.9045 25.0987 33.8574 25.3131 33.7623 25.4634C33.7533 25.4794 33.7433 25.4944 33.7323 25.5105C33.6392 25.6337 33.5131 25.7078 33.3549 25.7308C33.3429 25.7329 33.3309 25.7349 33.3189 25.7359C33.2938 25.7389 33.2668 25.7399 33.2408 25.7399C33.2058 25.7399 33.1707 25.7379 33.1377 25.7339C33.0836 25.7278 33.0336 25.7158 32.9855 25.6998C32.8394 25.6507 32.7153 25.5575 32.6122 25.4193C32.5941 25.3953 32.5771 25.3692 32.5611 25.3442C32.5461 25.3191 32.5321 25.2931 32.5191 25.267C32.5161 25.262 32.5131 25.256 32.5111 25.251C32.502 25.234 32.495 25.2159 32.488 25.1959C32.482 25.1839 32.477 25.1719 32.473 25.1598C32.463 25.1338 32.454 25.1067 32.446 25.0797C32.3529 24.7972 32.3048 24.4556 32.1997 24.2162C32.1927 24.2001 32.1847 24.1851 32.1777 24.1691C32.1637 24.141 32.1487 24.112 32.1327 24.0839C32.0126 23.8605 31.8644 23.6582 31.6892 23.4768C31.6672 23.4538 31.6442 23.4308 31.6222 23.4087C31.5771 23.3636 31.5301 23.3216 31.481 23.2795C31.3839 23.1963 31.2798 23.1182 31.1687 23.0461C31.0326 22.9569 30.8884 22.8818 30.7323 22.8207C30.5791 22.8798 30.435 22.9509 30.2988 23.0341C29.8414 23.3166 29.499 23.6872 29.2688 24.145C29.1947 24.2943 29.1296 24.4486 29.0756 24.6048C29.0496 24.68 29.0245 24.7551 29.0035 24.8323H28.6512L28.9485 23.549V22.8157H28.3268C28.0305 22.9329 27.7673 23.0992 27.542 23.3166C27.498 23.3576 27.456 23.4007 27.4159 23.4468C26.9124 24.0048 26.6602 24.7942 26.6602 25.818V34.5225H29.9555V26.4591C29.9555 26.1536 30.0135 25.9252 30.1277 25.7719C30.2418 25.6197 30.4059 25.5425 30.6201 25.5425C30.6552 25.5425 30.6902 25.5445 30.7233 25.5485C30.7563 25.5445 30.7913 25.5425 30.8254 25.5425C31.0386 25.5425 31.2027 25.6197 31.3179 25.7719C31.432 25.9252 31.49 26.1536 31.49 26.4591V34.5225H34.7853V26.4591C34.7853 26.1536 34.8424 25.9252 34.9565 25.7719C35.0706 25.6197 35.2348 25.5425 35.449 25.5425C35.4841 25.5425 35.5191 25.5445 35.5521 25.5485C35.5852 25.5445 35.6202 25.5425 35.6552 25.5425C35.8674 25.5425 36.0326 25.6197 36.1477 25.7719C36.2618 25.9252 36.3189 26.1536 36.3189 26.4591V34.5225H39.6142V25.818C39.6142 24.7942 39.363 24.0048 38.8585 23.4468V23.4478Z" fill="white"/>
<path d="M38.8585 23.4478C38.6052 23.1673 38.2999 22.9569 37.9455 22.8177H37.3249V23.551L37.6222 24.8343H37.2709C37.2498 24.7591 37.2258 24.684 37.1998 24.6109C37.1447 24.4516 37.0797 24.2963 37.0046 24.147C36.7754 23.6892 36.432 23.3186 35.9745 23.0361C35.8384 22.9519 35.6943 22.8808 35.5411 22.8227C35.386 22.8838 35.2398 22.9589 35.1047 23.0481C34.6622 23.3376 34.3269 23.7123 34.0977 24.1701C34.0947 24.1761 34.0916 24.1831 34.0876 24.1911C34.0846 24.1961 34.0826 24.2021 34.0796 24.2091C34.0376 24.3033 33.9685 24.4836 33.9045 24.7601C33.8474 25.0046 33.8464 25.3111 33.7623 25.4644C33.7543 25.4814 33.7443 25.4974 33.7323 25.5115C33.6292 25.6267 33.5091 25.7058 33.3549 25.7318C33.3429 25.7339 33.3309 25.7359 33.3189 25.7369C33.2938 25.7399 33.2668 25.7409 33.2408 25.7409C33.2058 25.7409 33.1707 25.7389 33.1377 25.7349C33.0836 25.7288 33.0336 25.7168 32.9855 25.7008C32.8414 25.6497 32.7203 25.5535 32.6122 25.4203C32.5931 25.3973 32.5761 25.3712 32.5611 25.3452C32.5451 25.3211 32.5311 25.2951 32.5191 25.268C32.5161 25.263 32.5131 25.257 32.5111 25.252C32.502 25.235 32.495 25.2169 32.488 25.1969C32.482 25.1849 32.477 25.1729 32.473 25.1608C32.463 25.1348 32.454 25.1077 32.446 25.0807C32.3529 24.7982 32.3048 24.4566 32.1997 24.2172C32.1927 24.2011 32.1847 24.1861 32.1777 24.1701C32.1637 24.142 32.1487 24.113 32.1327 24.0849C32.0106 23.8615 31.8624 23.6592 31.6892 23.4778C31.6672 23.4548 31.6442 23.4318 31.6222 23.4097C31.5761 23.3656 31.5301 23.3226 31.481 23.2805C31.3839 23.1973 31.2798 23.1192 31.1687 23.0471C31.0326 22.9579 30.8884 22.8828 30.7323 22.8217C30.3799 22.6814 29.9755 22.6123 29.521 22.6123C29.3659 22.6123 29.2177 22.6203 29.0756 22.6373C28.8053 22.6674 28.5561 22.7285 28.3268 22.8177C28.0305 22.9349 27.7673 23.1012 27.542 23.3186C27.498 23.3596 27.456 23.4027 27.4159 23.4488C26.9124 24.0068 26.6602 24.7962 26.6602 25.82V34.5245H29.9555V26.4611C29.9555 26.1556 30.0135 25.9272 30.1277 25.7739C30.2418 25.6217 30.4059 25.5445 30.6201 25.5445C30.6552 25.5445 30.6902 25.5465 30.7233 25.5505C30.7563 25.5465 30.7913 25.5445 30.8254 25.5445C31.0386 25.5445 31.2027 25.6217 31.3179 25.7739C31.432 25.9272 31.49 26.1556 31.49 26.4611V34.5245H34.7853V26.4611C34.7853 26.1556 34.8424 25.9272 34.9565 25.7739C35.0706 25.6217 35.2348 25.5445 35.449 25.5445C35.4841 25.5445 35.5191 25.5465 35.5521 25.5505C35.5852 25.5465 35.6202 25.5445 35.6552 25.5445C35.8674 25.5445 36.0326 25.6217 36.1477 25.7739C36.2618 25.9272 36.3189 26.1556 36.3189 26.4611V34.5245H39.6142V25.82C39.6142 24.7962 39.363 24.0068 38.8585 23.4488V23.4478Z" fill="white"/>
<path d="M33.9535 24.562C33.9535 24.562 33.8574 24.9287 33.8123 25.114C33.7473 25.3825 33.6292 25.7601 33.1907 25.7431C32.449 25.7151 33.3389 26.3442 33.3389 26.3442L34.2718 25.4887L33.9535 24.562Z" fill="white"/>
<path d="M67.8896 22.5591H70.4392V27.4758H74.4342V29.7899H70.4392V34.4682H67.8896V22.5591ZM71.1199 22.5591H75.0979V24.8562H71.1199V22.5591Z" fill="white"/>
<path d="M46.7101 22.6021C49.8983 22.6021 52.0174 24.8881 52.0174 28.5055C52.0174 32.123 49.8973 34.409 46.7101 34.409C43.5229 34.409 41.3867 32.1069 41.3867 28.5055C41.3867 24.9041 43.5229 22.6021 46.7101 22.6021ZM46.7101 32.7641C49.5039 32.7641 51.1956 31.1032 51.1956 28.5055C51.1956 25.9079 49.5029 24.247 46.7101 24.247C43.9173 24.247 42.2075 25.8909 42.2075 28.5055C42.2075 31.1202 43.9163 32.7641 46.7101 32.7641Z" fill="white"/>
<path d="M78.2426 28.499C78.2426 26.1598 78.0734 23.432 77.2266 22.5845H85.8122V25.5167C84.3898 23.8898 81.8662 23.5842 80.2236 23.5842C79.7491 23.5842 79.3597 23.6013 79.0894 23.6353V27.957C79.4788 28.0081 79.8682 28.0081 80.2576 28.0081C81.5449 28.0081 83.0184 27.8218 84.2376 27.2287V29.7712C83.0184 29.1952 81.5449 29.0089 80.2576 29.0089C79.8682 29.0089 79.4788 29.0089 79.0894 29.06V33.3646C79.3607 33.3987 79.7501 33.4157 80.2236 33.4157C81.8492 33.4157 84.3898 33.1102 85.8122 31.4663V34.4155H77.2266C78.0734 33.568 78.2426 30.8391 78.2426 28.501V28.499Z" fill="white"/>
<path d="M115.612 34.4596H109.325V29.038H108.473V34.4596H102.186L106.933 22.6416H110.881L115.612 34.4596Z" fill="white"/>
<path d="M41.7376 46.2585L38.9049 49.0934C37.6814 50.3179 37.6814 52.3032 38.9049 53.5277L41.7376 56.3626C42.9612 57.5871 44.945 57.5871 46.1686 56.3626L49.0013 53.5277C50.2249 52.3032 50.2249 50.3179 49.0013 49.0934L46.1686 46.2585C44.945 45.034 42.9612 45.034 41.7376 46.2585Z" fill="white"/>
<path d="M64.5039 45.418H75.7973V48.2831H67.6871V49.8849H75.2638V52.75H67.6871V57.235H64.5039V45.417V45.418Z" fill="white"/>
<path d="M13.4265 57.236H7.1392V51.8143H6.28834V57.236H0L4.74779 45.418H8.69677L13.4265 57.236Z" fill="white"/>
<path d="M35.4765 46.2433C35.2223 45.9618 34.917 45.7514 34.5616 45.6112C34.3344 45.522 34.0841 45.4609 33.8139 45.4298C33.6707 45.4128 33.5206 45.4048 33.3644 45.4048C32.908 45.4048 32.5026 45.4749 32.1492 45.6152C31.994 45.6763 31.8479 45.7514 31.7118 45.8406C31.2683 46.1311 30.932 46.5067 30.7017 46.9656C30.6987 46.9716 30.6957 46.9786 30.6917 46.9866C30.6887 46.9916 30.6867 46.9976 30.6837 47.0046C30.6407 47.0988 30.5716 47.2801 30.5075 47.5576V47.6217C30.5075 47.8982 30.4605 48.1126 30.3654 48.2639C30.3564 48.2799 30.3464 48.2949 30.3354 48.311C30.2423 48.4352 30.1161 48.5093 29.956 48.5313C29.944 48.5333 29.932 48.5354 29.9189 48.5364C29.8939 48.5394 29.8669 48.5404 29.8409 48.5404C29.8048 48.5404 29.7708 48.5384 29.7368 48.5343C29.6827 48.5283 29.6317 48.5163 29.5846 48.4993C29.4385 48.4502 29.3133 48.357 29.2102 48.2178C29.1922 48.1937 29.1742 48.1677 29.1592 48.1427C29.1442 48.1176 29.1301 48.0916 29.1161 48.0655C29.1131 48.0605 29.1101 48.0545 29.1081 48.0495C29.0991 48.0325 29.0921 48.0134 29.0851 47.9944C29.0791 47.9824 29.0741 47.9703 29.0701 47.9573C29.0601 47.9313 29.0511 47.9042 29.0431 47.8772C28.95 47.5937 28.9019 47.2511 28.7958 47.0106C28.7888 46.9946 28.7808 46.9796 28.7738 46.9636C28.7598 46.9355 28.7448 46.9065 28.7287 46.8784C28.6076 46.655 28.4595 46.4516 28.2843 46.2693C28.2623 46.2463 28.2393 46.2232 28.2172 46.2012C28.1722 46.1561 28.1251 46.114 28.0761 46.072C27.979 45.9888 27.8739 45.9107 27.7628 45.8386C27.6266 45.7494 27.4815 45.6743 27.3253 45.6132C27.1722 45.6723 27.027 45.7434 26.8909 45.8275C26.4314 46.111 26.0881 46.4827 25.8578 46.9415C25.7838 47.0908 25.7187 47.2451 25.6637 47.4033C25.6376 47.4785 25.6126 47.5536 25.5916 47.6307H25.2382L25.5365 46.3435V45.6081H24.9129C24.6156 45.7264 24.3523 45.8927 24.1261 46.11C24.0821 46.1521 24.04 46.1942 23.999 46.2403C23.4945 46.7993 23.2412 47.5917 23.2412 48.6185V57.348H26.5465V49.2606C26.5465 48.9551 26.6046 48.7247 26.7197 48.5714C26.8348 48.4191 26.999 48.342 27.2132 48.342C27.2493 48.342 27.2833 48.344 27.3173 48.348C27.3504 48.344 27.3854 48.342 27.4194 48.342C27.6336 48.342 27.7988 48.4191 27.9129 48.5714C28.028 48.7247 28.0861 48.9551 28.0861 49.2606V57.348H31.3914V49.2606C31.3914 48.9551 31.4485 48.7247 31.5626 48.5714C31.6777 48.4191 31.8419 48.342 32.0561 48.342C32.0921 48.342 32.1262 48.344 32.1602 48.348C32.1932 48.344 32.2283 48.342 32.2643 48.342C32.4775 48.342 32.6437 48.4191 32.7578 48.5714C32.8729 48.7247 32.929 48.9551 32.929 49.2606V57.348H36.2343V48.6185C36.2343 47.5917 35.9821 46.8003 35.4765 46.2403V46.2433Z" fill="white"/>
<path d="M35.4765 46.2433C35.2223 45.9618 34.917 45.7514 34.5616 45.6112H33.939V46.3465L34.2373 47.6338H33.8849C33.8639 47.5586 33.8399 47.4835 33.8139 47.4104C33.7588 47.2511 33.6927 47.0948 33.6177 46.9445C33.3884 46.4847 33.0441 46.1141 32.5846 45.8306C32.4485 45.7464 32.3034 45.6753 32.1502 45.6162C31.995 45.6773 31.8489 45.7524 31.7128 45.8416C31.2693 46.1321 30.933 46.5078 30.7027 46.9666C30.6997 46.9726 30.6967 46.9796 30.6927 46.9876C30.6897 46.9926 30.6877 46.9986 30.6847 47.0057C30.6417 47.0998 30.5726 47.2811 30.5085 47.5586C30.4515 47.8041 30.4505 48.1116 30.3664 48.2649C30.3584 48.2819 30.3484 48.298 30.3364 48.312C30.2323 48.4282 30.1131 48.5073 29.957 48.5324C29.945 48.5344 29.933 48.5364 29.9199 48.5374C29.8949 48.5404 29.8679 48.5414 29.8419 48.5414C29.8058 48.5414 29.7718 48.5394 29.7378 48.5354C29.6837 48.5294 29.6327 48.5173 29.5856 48.5003C29.4415 48.4492 29.3193 48.353 29.2112 48.2188C29.1922 48.1958 29.1742 48.1697 29.1602 48.1437C29.1442 48.1196 29.1301 48.0936 29.1171 48.0665C29.1141 48.0615 29.1111 48.0555 29.1091 48.0505C29.1001 48.0335 29.0931 48.0144 29.0861 47.9954C29.0801 47.9834 29.0751 47.9714 29.0711 47.9583C29.0611 47.9323 29.0521 47.9053 29.0441 47.8782C28.951 47.5947 28.9029 47.2521 28.7968 47.0117C28.7898 46.9956 28.7818 46.9806 28.7748 46.9646C28.7608 46.9365 28.7458 46.9075 28.7297 46.8794C28.6066 46.656 28.4585 46.4527 28.2853 46.2703C28.2633 46.2473 28.2403 46.2243 28.2182 46.2022C28.1722 46.1581 28.1261 46.1151 28.0771 46.073C27.98 45.9898 27.8749 45.9117 27.7638 45.8396C27.6276 45.7504 27.4825 45.6753 27.3263 45.6142C26.973 45.4739 26.5676 45.4038 26.1111 45.4038C25.9559 45.4038 25.8078 45.4118 25.6637 45.4289C25.3924 45.4589 25.1421 45.52 24.9129 45.6102C24.6156 45.7284 24.3523 45.8947 24.1261 46.1121C24.0821 46.1541 24.04 46.1962 23.999 46.2423C23.4945 46.8013 23.2412 47.5937 23.2412 48.6205V57.35H26.5465V49.2627C26.5465 48.9571 26.6046 48.7267 26.7197 48.5734C26.8348 48.4212 26.999 48.344 27.2132 48.344C27.2493 48.344 27.2833 48.346 27.3173 48.35C27.3504 48.346 27.3854 48.344 27.4194 48.344C27.6336 48.344 27.7988 48.4212 27.9129 48.5734C28.028 48.7267 28.0861 48.9571 28.0861 49.2627V57.35H31.3914V49.2627C31.3914 48.9571 31.4485 48.7267 31.5626 48.5734C31.6777 48.4212 31.8419 48.344 32.0561 48.344C32.0921 48.344 32.1262 48.346 32.1602 48.35C32.1932 48.346 32.2283 48.344 32.2643 48.344C32.4775 48.344 32.6437 48.4212 32.7578 48.5734C32.8729 48.7267 32.929 48.9571 32.929 49.2627V57.35H36.2343V48.6205C36.2343 47.5937 35.9821 46.8023 35.4765 46.2423V46.2433Z" fill="white"/>
<path d="M30.5577 47.3604C30.5577 47.3604 30.4616 47.728 30.4156 47.9133C30.3505 48.1818 30.2324 48.5615 29.792 48.5445C29.0482 48.5164 29.9411 49.1475 29.9411 49.1475L30.8771 48.289L30.5577 47.3604Z" fill="white"/>
<path d="M78.9014 46.1233C78.6461 46.3537 78.4549 46.6312 78.3278 46.9548C78.2467 47.1612 78.1917 47.3886 78.1637 47.634C78.1476 47.7642 78.1406 47.9005 78.1406 48.0417C78.1406 48.4565 78.2047 48.8241 78.3318 49.1457C78.3869 49.2869 78.4549 49.4202 78.536 49.5434C78.7993 49.9461 79.1396 50.2516 79.5571 50.461C79.5631 50.464 79.5691 50.467 79.5761 50.47C79.5811 50.473 79.5861 50.475 79.5931 50.477C79.6792 50.5161 79.8433 50.5782 80.0946 50.6363H80.1527C80.4039 50.6363 80.5981 50.6784 80.7352 50.7656C80.7503 50.7736 80.7643 50.7826 80.7773 50.7936C80.8894 50.8788 80.9575 50.993 80.9775 51.1382C80.9795 51.1492 80.9815 51.1603 80.9825 51.1713C80.9855 51.1943 80.9865 51.2184 80.9865 51.2424C80.9865 51.2745 80.9845 51.3065 80.9805 51.3366C80.9745 51.3857 80.9635 51.4317 80.9495 51.4748C80.9054 51.6081 80.8203 51.7213 80.6942 51.8154C80.6722 51.8325 80.6492 51.8475 80.6261 51.8615C80.6031 51.8755 80.5801 51.8886 80.5561 51.9006C80.5511 51.9036 80.5461 51.9066 80.5411 51.9076C80.525 51.9156 80.509 51.9226 80.491 51.9286C80.48 51.9346 80.469 51.9386 80.458 51.9426C80.4339 51.9517 80.4099 51.9597 80.3849 51.9677C80.1276 52.0528 79.8173 52.0959 79.5991 52.1921C79.5841 52.1981 79.5701 52.2061 79.5571 52.2121C79.531 52.2252 79.505 52.2392 79.48 52.2532C79.2768 52.3634 79.0926 52.4976 78.9274 52.6569C78.9064 52.677 78.8864 52.698 78.8654 52.718C78.8243 52.7591 78.7863 52.8022 78.7482 52.8463C78.6722 52.9344 78.6021 53.0296 78.536 53.1308C78.4549 53.254 78.3869 53.3862 78.3318 53.5285C78.3849 53.6677 78.4499 53.8 78.526 53.9232C78.7833 54.3399 79.1196 54.6525 79.536 54.8618C79.6712 54.929 79.8113 54.9881 79.9545 55.0382C80.0225 55.0622 80.0906 55.0842 80.1607 55.1033V55.4248L78.9935 55.1534H78.3268V55.7204C78.4339 55.9908 78.5851 56.2293 78.7823 56.4356C78.8203 56.4757 78.8584 56.5138 78.9004 56.5508C79.4079 57.0097 80.1256 57.2391 81.0566 57.2391H88.9736V54.2367H81.6392C81.3619 54.2367 81.1537 54.1846 81.0145 54.0794C80.8764 53.9753 80.8063 53.826 80.8063 53.6306C80.8063 53.5986 80.8083 53.5665 80.8123 53.5365C80.8083 53.5064 80.8063 53.4744 80.8063 53.4433C80.8063 53.249 80.8764 53.0987 81.0145 52.9945C81.1537 52.8903 81.3619 52.8372 81.6392 52.8372H88.9736V49.8349H81.6392C81.3619 49.8349 81.1537 49.7828 81.0145 49.6786C80.8764 49.5744 80.8063 49.4252 80.8063 49.2298C80.8063 49.1978 80.8083 49.1657 80.8123 49.1357C80.8083 49.1056 80.8063 49.0736 80.8063 49.0415C80.8063 48.8482 80.8764 48.6969 81.0145 48.5927C81.1537 48.4885 81.3619 48.4364 81.6392 48.4364H88.9736V45.4341H81.0566C80.1256 45.4341 79.4069 45.6625 78.9004 46.1223L78.9014 46.1233Z" fill="white"/>
<path d="M78.9014 46.1233C78.6461 46.3537 78.4549 46.6312 78.3278 46.9548V47.5208H78.9945L80.1617 47.2493V47.5699C80.0936 47.5889 80.0255 47.6109 79.9585 47.634C79.8133 47.6841 79.6722 47.7442 79.536 47.8123C79.1196 48.0207 78.7833 48.3332 78.526 48.751C78.4499 48.8742 78.3849 49.0064 78.3318 49.1457C78.3869 49.2869 78.4549 49.4202 78.536 49.5434C78.7993 49.9461 79.1396 50.2516 79.5571 50.461C79.5631 50.464 79.5691 50.467 79.5761 50.47C79.5811 50.473 79.5861 50.475 79.5931 50.477C79.6792 50.5161 79.8433 50.5782 80.0946 50.6363C80.3168 50.6884 80.5961 50.6884 80.7352 50.7656C80.7513 50.7726 80.7653 50.7826 80.7773 50.7936C80.8824 50.8878 80.9545 50.997 80.9775 51.1382C80.9795 51.1492 80.9815 51.1603 80.9825 51.1713C80.9855 51.1943 80.9865 51.2184 80.9865 51.2424C80.9865 51.2745 80.9845 51.3065 80.9805 51.3366C80.9745 51.3857 80.9635 51.4317 80.9495 51.4748C80.9034 51.6061 80.8153 51.7162 80.6942 51.8154C80.6732 51.8325 80.6502 51.8485 80.6261 51.8615C80.6041 51.8765 80.5811 51.8896 80.5561 51.9006C80.5511 51.9036 80.5461 51.9066 80.5411 51.9076C80.525 51.9156 80.509 51.9226 80.491 51.9286C80.48 51.9346 80.469 51.9386 80.458 51.9426C80.4339 51.9517 80.4099 51.9597 80.3849 51.9677C80.1276 52.0528 79.8173 52.0959 79.5991 52.1921C79.5841 52.1981 79.5701 52.2061 79.5571 52.2121C79.531 52.2252 79.505 52.2392 79.48 52.2532C79.2768 52.3644 79.0926 52.4996 78.9274 52.6569C78.9064 52.677 78.8864 52.698 78.8654 52.718C78.8253 52.7591 78.7863 52.8022 78.7482 52.8463C78.6722 52.9344 78.6021 53.0296 78.536 53.1308C78.4549 53.254 78.3869 53.3862 78.3318 53.5285C78.2047 53.85 78.1406 54.2177 78.1406 54.6324C78.1406 54.7737 78.1476 54.9079 78.1637 55.0382C78.1917 55.2846 78.2467 55.511 78.3278 55.7204C78.4349 55.9908 78.5861 56.2293 78.7833 56.4356C78.8213 56.4757 78.8594 56.5138 78.9014 56.5508C79.4089 57.0097 80.1266 57.2391 81.0576 57.2391H88.9746V54.2367H81.6402C81.3629 54.2367 81.1547 54.1846 81.0155 54.0794C80.8774 53.9753 80.8073 53.826 80.8073 53.6306C80.8073 53.5986 80.8093 53.5665 80.8133 53.5365C80.8093 53.5064 80.8073 53.4744 80.8073 53.4433C80.8073 53.249 80.8774 53.0987 81.0155 52.9945C81.1547 52.8903 81.3629 52.8372 81.6402 52.8372H88.9746V49.8349H81.6402C81.3629 49.8349 81.1547 49.7828 81.0155 49.6786C80.8774 49.5744 80.8073 49.4252 80.8073 49.2298C80.8073 49.1978 80.8093 49.1657 80.8133 49.1357C80.8093 49.1056 80.8073 49.0736 80.8073 49.0415C80.8073 48.8482 80.8774 48.6969 81.0155 48.5927C81.1547 48.4885 81.3629 48.4364 81.6402 48.4364H88.9746V45.4341H81.0576C80.1266 45.4341 79.4079 45.6625 78.9014 46.1223V46.1233Z" fill="white"/>
<path d="M79.9141 50.5898C79.9141 50.5898 80.2474 50.678 80.4156 50.719C80.6598 50.7781 81.0032 50.8863 80.9882 51.285C80.9621 51.9612 81.5347 51.1498 81.5347 51.1498L80.7559 50.3003L79.9131 50.5898H79.9141Z" fill="white"/>
<path d="M103.572 57.2233L108.321 45.4053H112.269L117 57.2233H113.585L112.482 54.4293H108.036L106.951 57.2233H103.571H103.572ZM109.139 51.5803H111.397L110.241 48.8394L109.138 51.5803H109.139Z" fill="white"/>
<path d="M21.0703 47.6574H12.9121V45.3423H21.0703V47.6574ZM18.2765 48.3436V57.3486H15.7059V48.3436H18.2765Z" fill="white"/>
<path d="M56.3267 50.7704C59.7211 51.5658 61.7582 51.9465 61.7582 54.1514C61.7582 56.3563 59.9033 57.3 57.2216 57.3C54.8872 57.3 53.2306 56.4876 52.1875 55.1131L53.4127 53.8368C54.0424 54.8476 55.2506 55.6431 57.586 55.6431C59.7051 55.6431 60.9473 54.9969 60.9473 53.936C60.9473 52.6598 59.2416 52.3622 57.2546 51.8483C54.8202 51.2182 52.5188 50.8375 52.5188 48.6667C52.5188 46.7442 54.3737 45.4019 56.9233 45.4019C59.0094 45.4019 60.4669 46.2964 61.4438 47.5727L60.2186 48.865C59.589 47.8372 58.3808 47.0588 56.5099 47.0588C54.639 47.0588 53.3477 47.9203 53.3477 48.8981C53.3477 50.0411 55.0364 50.4558 56.3287 50.7704H56.3267Z" fill="white"/>
<path d="M101.652 49.289C101.652 51.56 100.304 53.0296 97.9145 53.3362C98.7333 54.378 100.56 56.5809 101.856 57.3323H98.7843C98.9205 56.7512 98.0506 55.0091 97.0096 53.4043H94.1086C94.1597 55.0612 94.3308 56.615 95.0306 57.3152H92.2998C93.2558 56.3585 93.2388 53.6948 93.2388 51.3546C93.2388 49.0145 93.1537 46.2486 92.2998 45.394H95.5761C99.3649 45.394 101.651 46.3507 101.651 49.288L101.652 49.289ZM94.1096 51.6972H95.8504C98.8544 51.6972 100.97 51.2024 100.97 49.3571C100.97 47.7863 99.434 47.1031 96.9935 47.1031H94.1096L94.0926 47.035V51.7654L94.1096 51.6972Z" fill="white"/>
<path d="M46.5745 13.0405C43.2602 13.0405 40.5635 11.0871 40.5635 8.68578C40.5635 8.00858 40.7777 7.3444 41.1851 6.74634C40.7777 6.14827 40.5635 5.48409 40.5635 4.80689C40.5635 2.40562 43.2602 0.452148 46.5745 0.452148C49.8889 0.452148 52.5856 2.40562 52.5856 4.80689C52.5856 5.48409 52.3714 6.14827 51.964 6.74634C52.3714 7.3444 52.5856 8.00858 52.5856 8.68578C52.5856 11.0871 49.8889 13.0405 46.5745 13.0405ZM46.5745 1.33071C43.7437 1.33071 41.4414 2.89048 41.4414 4.80789C41.4414 5.38692 41.6596 5.96194 42.073 6.46984L42.2982 6.74734L42.073 7.02383C41.6596 7.53173 41.4414 8.10675 41.4414 8.68578C41.4414 10.6032 43.7447 12.163 46.5745 12.163C49.4044 12.163 51.7077 10.6032 51.7077 8.68578C51.7077 8.10675 51.4895 7.53173 51.0761 7.02383L50.8509 6.74634L51.0761 6.46884C51.4895 5.96094 51.7077 5.38592 51.7077 4.80689C51.7077 2.88948 49.4044 1.32971 46.5745 1.32971V1.33071Z" fill="white"/>
<path d="M89.0029 12.6572V0.845215H97.2152C99.8639 0.845215 100.93 2.81972 100.93 4.56282C100.93 5.93226 100.219 7.48001 98.4414 7.99592C98.4414 8.01396 98.4595 8.01396 98.4595 8.03199L101.268 12.6572H97.6777L94.976 8.17424H92.1851V12.6572H89.0029ZM92.1841 5.31015H97.2142C97.5515 5.31015 97.7477 5.06071 97.7477 4.67001V4.34944C97.7477 3.95775 97.5525 3.70931 97.2142 3.70931H92.1841V5.31015Z" fill="white"/>
<path d="M110.81 0.876953H106.904L102.205 12.5717H105.499L108.822 4.1077L112.198 12.5717H115.492L110.812 0.876953H110.81Z" fill="white"/>
<path d="M57.7049 10.434V12.5718C56.2704 12.5387 54.917 11.9356 53.9551 10.9399L55.1613 9.01443C55.7649 9.61851 56.7749 10.3198 57.7049 10.434ZM59.2855 9.37407C59.2855 8.57465 58.1443 8.05272 57.5247 7.74217C57.0682 7.51376 56.6118 7.26933 56.2043 7.04092C55.0472 6.37174 54.2804 5.55629 54.2804 4.13676C54.2804 2.01599 55.9761 0.971137 57.7039 0.856934V3.02679C57.1493 3.12496 56.7579 3.41849 56.7579 4.02156C56.7579 4.51143 57.1983 4.88609 57.7199 5.19665C58.2414 5.52323 58.877 5.81675 59.4316 6.11027C60.7519 6.82855 61.779 7.59491 61.779 9.2759C61.779 11.3155 60.1974 12.3754 58.3555 12.5557V10.4179C58.9912 10.2877 59.2845 9.84691 59.2845 9.37407H59.2855ZM61.4546 2.21134L60.2975 4.03859C59.857 3.45154 59.0582 3.05985 58.3575 3.01076V0.856934C59.5637 0.922049 60.7539 1.44398 61.4556 2.21134H61.4546Z" fill="white"/>
<path d="M19.2082 6.75042V2.31353C17.9339 2.31353 16.2352 2.48383 14.8428 3.7581V0.817871H24.4915V3.7591C23.2002 2.36462 21.1111 2.2975 20.058 2.2975V6.75142C20.058 9.08056 20.007 11.6982 20.992 12.685H18.2742C19.2252 11.7333 19.2082 9.08056 19.2082 6.75142V6.75042Z" fill="white"/>
<path d="M26.0723 12.648C27.0162 11.7033 26.9992 9.07162 26.9992 6.76051C26.9992 4.4494 26.9151 1.71655 26.0723 0.873047H29.814C29.2745 1.81773 29.9151 4.4494 31.0783 7.58698C31.4997 8.71699 32.1234 10.4881 32.5618 11.6863C32.9322 10.4881 33.5058 8.63284 33.9272 7.3175C34.8541 4.4494 35.4107 1.85179 34.7871 0.874049H39.0173C38.2415 1.65043 38.0904 4.43337 38.0904 6.76151C38.0904 9.08965 38.0393 11.6702 39.0173 12.649H36.3206C37.2646 11.7043 37.2475 9.07262 37.2475 6.76151C37.2475 5.17569 37.1965 3.40455 36.9102 2.19039C36.1184 3.47267 35.4267 5.41211 34.719 7.58798C34.2305 9.10568 33.6069 11.8055 33.708 12.649H31.2134C31.4497 11.8726 30.792 9.10668 30.1344 7.3185C29.4937 5.58141 28.8361 3.92748 28.0953 2.69629C27.8931 3.86036 27.842 5.39508 27.842 6.76151C27.842 9.07262 27.791 11.6702 28.769 12.649H26.0723V12.648Z" fill="white"/>
<path d="M64.6855 12.684C65.6355 11.7333 65.6185 9.08557 65.6185 6.76044C65.6185 4.43531 65.5334 1.68542 64.6855 0.836914H73.2502V3.77313C71.8428 2.14424 69.3322 1.85572 67.6876 1.85572C67.1791 1.85572 66.7376 1.87276 66.4663 1.90682V6.20045C66.8738 6.25154 67.2802 6.26857 67.6876 6.26857C68.9769 6.26857 70.4524 6.08224 71.6726 5.48818V8.0337C70.4514 7.45668 68.9759 7.27035 67.6876 7.27035C67.2802 7.27035 66.8738 7.28738 66.4663 7.33847C66.4663 9.4943 66.5004 11.7854 67.3993 12.685H64.6855V12.684Z" fill="white"/>
<path d="M76.2881 1.58861C76.0329 1.81902 75.8417 2.09652 75.7145 2.42009C75.6335 2.62646 75.5784 2.85386 75.5504 3.0993C75.5343 3.22953 75.5273 3.36577 75.5273 3.50702C75.5273 3.92176 75.5914 4.28941 75.7185 4.61099C75.7736 4.75224 75.8417 4.88547 75.9227 5.00869C76.186 5.41141 76.5263 5.71695 76.9438 5.92632C76.9498 5.92933 76.9558 5.93233 76.9628 5.93534C76.9678 5.93834 76.9728 5.94035 76.9798 5.94235C77.0659 5.98142 77.2301 6.04353 77.4813 6.10163H77.5394C77.7906 6.10163 77.9848 6.14371 78.122 6.23086C78.137 6.23888 78.151 6.24789 78.164 6.25891C78.2761 6.34407 78.3442 6.45827 78.3642 6.60353C78.3662 6.61455 78.3682 6.62557 78.3692 6.63659C78.3722 6.65963 78.3732 6.68367 78.3732 6.70771C78.3732 6.73977 78.3712 6.77183 78.3672 6.80188C78.3612 6.85097 78.3502 6.89705 78.3362 6.94013C78.2921 7.07336 78.207 7.18656 78.0809 7.28073C78.0589 7.29776 78.0359 7.31279 78.0128 7.32681C77.9898 7.34084 77.9668 7.35386 77.9428 7.36588C77.9378 7.36889 77.9328 7.37189 77.9278 7.37289C77.9117 7.38091 77.8957 7.38792 77.8777 7.39393C77.8667 7.39994 77.8557 7.40395 77.8447 7.40796C77.8207 7.41697 77.7966 7.42499 77.7716 7.433C77.5143 7.51815 77.204 7.56123 76.9858 7.6574C76.9708 7.66341 76.9568 7.67142 76.9438 7.67744C76.9177 7.69046 76.8917 7.70448 76.8667 7.71851C76.6635 7.8287 76.4793 7.96294 76.3141 8.12223C76.2931 8.14226 76.2731 8.1633 76.2521 8.18333C76.211 8.22441 76.173 8.26748 76.135 8.31156C76.0589 8.39972 75.9888 8.49489 75.9227 8.59607C75.8417 8.71929 75.7736 8.85152 75.7185 8.99378C75.7716 9.13302 75.8367 9.26526 75.9127 9.38848C76.17 9.80522 76.5063 10.1178 76.9228 10.3271C77.0579 10.3943 77.198 10.4534 77.3412 10.5035C77.4092 10.5275 77.4773 10.5495 77.5474 10.5686V10.8901L76.3802 10.6187H75.7135V11.1857C75.8206 11.4562 75.9718 11.6946 76.169 11.9009C76.207 11.941 76.2451 11.9791 76.2871 12.0161C76.7946 12.475 77.5123 12.7044 78.4433 12.7044H86.3603V9.70203H79.0259C78.7486 9.70203 78.5404 9.64994 78.4012 9.54475C78.2631 9.44057 78.193 9.2913 78.193 9.09596C78.193 9.0639 78.195 9.03184 78.199 9.00179C78.195 8.97174 78.193 8.93968 78.193 8.90862C78.193 8.71428 78.2631 8.56401 78.4012 8.45983C78.5404 8.35564 78.7486 8.30255 79.0259 8.30255H86.3603V5.30021H79.0259C78.7486 5.30021 78.5404 5.24812 78.4012 5.14393C78.2631 5.03975 78.193 4.89048 78.193 4.69513C78.193 4.66308 78.195 4.63102 78.199 4.60097C78.195 4.57091 78.193 4.53886 78.193 4.5068C78.193 4.31346 78.2631 4.16219 78.4012 4.058C78.5404 3.95382 78.7486 3.90173 79.0259 3.90173H86.3603V0.900391H78.4433C77.5123 0.900391 76.7936 1.1288 76.2871 1.58861H76.2881Z" fill="white"/>
<path d="M76.2881 1.58861C76.0329 1.81902 75.8417 2.09652 75.7145 2.42009V2.9861H76.3812L77.5484 2.71462V3.03518C77.4803 3.05422 77.4122 3.07626 77.3452 3.0993C77.2 3.14939 77.0589 3.20949 76.9228 3.27762C76.5063 3.48599 76.17 3.79854 75.9127 4.21628C75.8367 4.3395 75.7716 4.47174 75.7185 4.61099C75.7736 4.75224 75.8417 4.88547 75.9227 5.00869C76.186 5.41141 76.5263 5.71695 76.9438 5.92632C76.9498 5.92933 76.9558 5.93233 76.9628 5.93534C76.9678 5.93834 76.9728 5.94035 76.9798 5.94235C77.0659 5.98142 77.2301 6.04353 77.4813 6.10163C77.7035 6.15373 77.9828 6.15373 78.122 6.23086C78.138 6.23788 78.152 6.24789 78.164 6.25891C78.2691 6.35308 78.3412 6.46228 78.3642 6.60353C78.3662 6.61455 78.3682 6.62557 78.3692 6.63659C78.3722 6.65963 78.3732 6.68367 78.3732 6.70771C78.3732 6.73977 78.3712 6.77183 78.3672 6.80188C78.3612 6.85097 78.3502 6.89705 78.3362 6.94013C78.2901 7.07136 78.202 7.18155 78.0809 7.28073C78.0599 7.29776 78.0369 7.31379 78.0128 7.32681C77.9908 7.34184 77.9678 7.35486 77.9428 7.36588C77.9378 7.36889 77.9328 7.37189 77.9278 7.37289C77.9117 7.38091 77.8957 7.38792 77.8777 7.39393C77.8667 7.39994 77.8557 7.40395 77.8447 7.40796C77.8207 7.41697 77.7966 7.42499 77.7716 7.433C77.5143 7.51815 77.204 7.56123 76.9858 7.6574C76.9708 7.66341 76.9568 7.67142 76.9438 7.67744C76.9177 7.69046 76.8917 7.70448 76.8667 7.71851C76.6635 7.82971 76.4793 7.96495 76.3141 8.12223C76.2931 8.14226 76.2731 8.1633 76.2521 8.18333C76.212 8.22441 76.173 8.26748 76.135 8.31156C76.0589 8.39972 75.9888 8.49489 75.9227 8.59607C75.8417 8.71929 75.7736 8.85152 75.7185 8.99378C75.5914 9.31535 75.5273 9.683 75.5273 10.0977C75.5273 10.239 75.5343 10.3732 75.5504 10.5035C75.5784 10.7499 75.6335 10.9763 75.7145 11.1857C75.8216 11.4562 75.9728 11.6946 76.17 11.9009C76.208 11.941 76.2461 11.9791 76.2881 12.0161C76.7956 12.475 77.5133 12.7044 78.4443 12.7044H86.3613V9.70203H79.0269C78.7496 9.70203 78.5414 9.64994 78.4022 9.54475C78.2641 9.44057 78.194 9.2913 78.194 9.09596C78.194 9.0639 78.196 9.03184 78.2 9.00179C78.196 8.97174 78.194 8.93968 78.194 8.90862C78.194 8.71428 78.2641 8.56401 78.4022 8.45983C78.5414 8.35564 78.7496 8.30255 79.0269 8.30255H86.3613V5.30021H79.0269C78.7496 5.30021 78.5414 5.24812 78.4022 5.14393C78.2641 5.03975 78.194 4.89048 78.194 4.69513C78.194 4.66308 78.196 4.63102 78.2 4.60097C78.196 4.57091 78.194 4.53886 78.194 4.5068C78.194 4.31346 78.2641 4.16219 78.4022 4.058C78.5414 3.95382 78.7496 3.90173 79.0269 3.90173H86.3613V0.900391H78.4443C77.5133 0.900391 76.7946 1.1288 76.2881 1.58861Z" fill="white"/>
<path d="M77.3018 6.05563C77.3018 6.05563 77.6351 6.14378 77.8033 6.18486C78.0475 6.24396 78.3909 6.35215 78.3759 6.75086C78.3498 7.42707 78.9224 6.61562 78.9224 6.61562L78.1436 5.76611L77.3008 6.05563H77.3018Z" fill="white"/>
<path d="M1.50879 12.6886L6.25758 0.870605H10.2056L14.9363 12.6886H11.5219L10.4188 9.89464H5.97229L4.8872 12.6886H1.50879ZM7.0754 7.04658H9.33368L8.17751 4.30571L7.0744 7.04658H7.0754Z" fill="white"/>
</svg>
