<svg width="255" height="29" viewBox="0 0 255 29" fill="none" xmlns="http://www.w3.org/2000/svg">
<path d="M90.9663 4.82307L84.7925 11.0017C82.1257 13.6705 82.1257 17.9975 84.7925 20.6663L90.9663 26.8449C93.6331 29.5137 97.9568 29.5137 100.624 26.8449L106.797 20.6663C109.464 17.9975 109.464 13.6705 106.797 11.0017L100.624 4.82307C97.9568 2.15425 93.6331 2.15425 90.9663 4.82307Z" fill="white"/>
<path d="M140.586 2.99144H165.2V9.23588H147.524V12.7271H164.037V18.9715H147.524V28.7465H140.586V2.98926V2.99144Z" fill="white"/>
<path d="M29.263 28.7484H15.5598V16.932H13.7054V28.7484H0L10.3477 2.99121H18.9545L29.263 28.7484Z" fill="white"/>
<path d="M77.3191 4.79037C76.765 4.17684 76.0996 3.71834 75.3251 3.41266C74.8298 3.21834 74.2844 3.08516 73.6953 3.01747C73.3833 2.98036 73.0561 2.96289 72.7157 2.96289C71.7209 2.96289 70.8373 3.11573 70.0672 3.4214C69.729 3.55458 69.4105 3.71834 69.1138 3.91266C68.1473 4.54583 67.4143 5.3646 66.9125 6.36458C66.9059 6.37768 66.8994 6.39296 66.8906 6.41043C66.8841 6.42135 66.8797 6.43445 66.8732 6.44973C66.7794 6.65497 66.6288 7.05016 66.4892 7.65495V7.79468C66.4892 8.39729 66.3867 8.86454 66.1794 9.19422C66.1598 9.22916 66.138 9.26191 66.114 9.29684C65.9111 9.56758 65.6362 9.72915 65.2871 9.77719C65.2609 9.78155 65.2347 9.78592 65.2064 9.7881C65.1518 9.79465 65.0929 9.79684 65.0362 9.79684C64.9577 9.79684 64.8835 9.79247 64.8093 9.78374C64.6915 9.77064 64.5802 9.74443 64.4777 9.70732C64.1592 9.60033 63.8865 9.39728 63.6617 9.09379C63.6225 9.04139 63.5832 8.98462 63.5505 8.93004C63.5178 8.87545 63.4872 8.81868 63.4567 8.76191C63.4501 8.751 63.4436 8.7379 63.4392 8.72698C63.4196 8.68986 63.4043 8.64838 63.389 8.6069C63.3759 8.5807 63.365 8.5545 63.3563 8.52611C63.3345 8.46935 63.3149 8.41039 63.2974 8.35144C63.0945 7.73355 62.9898 6.98684 62.7585 6.46283C62.7433 6.42789 62.7258 6.39514 62.7105 6.36021C62.68 6.29908 62.6473 6.23576 62.6124 6.17463C62.3484 5.68774 62.0255 5.24451 61.6437 4.84714C61.5957 4.79692 61.5455 4.7467 61.4975 4.69867C61.3993 4.60042 61.2968 4.50872 61.1899 4.41701C60.9783 4.23579 60.7492 4.0655 60.507 3.90829C60.2103 3.71397 59.894 3.55022 59.5536 3.41703C59.2198 3.54585 58.9035 3.70087 58.6068 3.88427C57.6054 4.50217 56.8571 5.31219 56.3553 6.31218C56.1938 6.6375 56.052 6.97374 55.932 7.31871C55.8753 7.48246 55.8208 7.64621 55.7749 7.81433H55.0048L55.655 5.0087V3.40611H54.2958C53.6478 3.66375 53.074 4.02619 52.581 4.49998C52.485 4.59168 52.3933 4.68338 52.3039 4.78382C51.2043 6.00214 50.6523 7.72919 50.6523 9.96714V28.993H57.8563V11.3667C57.8563 10.7007 57.9828 10.1986 58.2337 9.86452C58.4846 9.53265 58.8424 9.36453 59.3093 9.36453C59.3878 9.36453 59.462 9.36889 59.5362 9.37763C59.6082 9.36889 59.6845 9.36453 59.7587 9.36453C60.2256 9.36453 60.5856 9.53265 60.8343 9.86452C61.0852 10.1986 61.2117 10.7007 61.2117 11.3667V28.993H68.4156V11.3667C68.4156 10.7007 68.54 10.1986 68.7887 9.86452C69.0396 9.53265 69.3974 9.36453 69.8643 9.36453C69.9428 9.36453 70.017 9.36889 70.0912 9.37763C70.1632 9.36889 70.2395 9.36453 70.3181 9.36453C70.7828 9.36453 71.1449 9.53265 71.3936 9.86452C71.6445 10.1986 71.7667 10.7007 71.7667 11.3667V28.993H78.9706V9.96714C78.9706 7.72919 78.4209 6.00432 77.3191 4.78382V4.79037Z" fill="white"/>
<path d="M77.3191 4.79059C76.765 4.17707 76.0996 3.71856 75.3251 3.41289H73.968V5.01548L74.6182 7.82111H73.8502C73.8044 7.65736 73.7521 7.49361 73.6953 7.33422C73.5753 6.98707 73.4313 6.64646 73.2677 6.31895C72.7681 5.31679 72.0176 4.50894 71.0162 3.89105C70.7195 3.70764 70.4032 3.55263 70.0694 3.42381C69.7312 3.557 69.4127 3.72075 69.116 3.91507C68.1495 4.54824 67.4164 5.367 66.9146 6.36699C66.9081 6.38009 66.9016 6.39537 66.8928 6.41284C66.8863 6.42376 66.8819 6.43686 66.8754 6.45214C66.7816 6.65738 66.631 7.05256 66.4914 7.65736C66.367 8.19228 66.3649 8.86258 66.1816 9.19664C66.1641 9.23375 66.1423 9.26869 66.1161 9.29925C65.8892 9.55252 65.6296 9.72501 65.2893 9.77959C65.2631 9.78396 65.2369 9.78833 65.2086 9.79051C65.154 9.79706 65.0951 9.79924 65.0384 9.79924C64.9598 9.79924 64.8857 9.79487 64.8115 9.78614C64.6937 9.77304 64.5824 9.74684 64.4799 9.70972C64.1657 9.59837 63.8996 9.38877 63.6639 9.0962C63.6225 9.04598 63.5832 8.98921 63.5527 8.93244C63.5178 8.88004 63.4872 8.82328 63.4588 8.76433C63.4523 8.75341 63.4458 8.74031 63.4414 8.72939C63.4218 8.69227 63.4065 8.65079 63.3912 8.60931C63.3781 8.58311 63.3672 8.55691 63.3585 8.52853C63.3367 8.47176 63.317 8.4128 63.2996 8.35385C63.0967 7.73596 62.992 6.98925 62.7607 6.46524C62.7454 6.43031 62.728 6.39756 62.7127 6.36262C62.6822 6.30149 62.6494 6.23817 62.6145 6.17703C62.3462 5.69014 62.0233 5.24692 61.6459 4.84955C61.5979 4.79933 61.5477 4.74912 61.4997 4.70108C61.3993 4.60501 61.299 4.51113 61.1921 4.41943C60.9805 4.23821 60.7514 4.0679 60.5092 3.9107C60.2125 3.71638 59.8962 3.55262 59.5558 3.41944C58.7857 3.11377 57.9021 2.96094 56.9072 2.96094C56.5691 2.96094 56.2462 2.9784 55.932 3.01552C55.3408 3.08102 54.7954 3.21421 54.2958 3.41071C53.6478 3.66835 53.074 4.03078 52.581 4.50457C52.485 4.59627 52.3933 4.68798 52.3039 4.78842C51.2043 6.00673 50.6523 7.73378 50.6523 9.97173V28.9976H57.8563V11.3713C57.8563 10.7053 57.9828 10.2032 58.2337 9.86911C58.4846 9.53724 58.8424 9.36912 59.3093 9.36912C59.3878 9.36912 59.462 9.37348 59.5362 9.38222C59.6082 9.37348 59.6845 9.36912 59.7587 9.36912C60.2256 9.36912 60.5856 9.53724 60.8343 9.86911C61.0852 10.2032 61.2117 10.7053 61.2117 11.3713V28.9976H68.4156V11.3713C68.4156 10.7053 68.54 10.2032 68.7887 9.86911C69.0396 9.53724 69.3974 9.36912 69.8643 9.36912C69.9428 9.36912 70.017 9.37348 70.0912 9.38222C70.1632 9.37348 70.2395 9.36912 70.3181 9.36912C70.7828 9.36912 71.1449 9.53724 71.3936 9.86911C71.6445 10.2032 71.7667 10.7053 71.7667 11.3713V28.9976H78.9706V9.97173C78.9706 7.73378 78.4209 6.00892 77.3191 4.78842V4.79059Z" fill="white"/>
<path d="M66.598 7.22461C66.598 7.22461 66.3886 8.0259 66.2882 8.42983C66.1464 9.01497 65.889 9.84246 64.929 9.80535C63.308 9.74421 65.2541 11.1197 65.2541 11.1197L67.294 9.24859L66.598 7.22461Z" fill="white"/>
<path d="M171.963 4.52853C171.406 5.0307 170.99 5.63549 170.713 6.34072C170.536 6.79049 170.416 7.28612 170.355 7.82104C170.32 8.10488 170.305 8.40182 170.305 8.70967C170.305 9.61359 170.444 10.4149 170.721 11.1157C170.841 11.4236 170.99 11.714 171.166 11.9825C171.74 12.8603 172.482 13.5262 173.392 13.9825C173.405 13.9891 173.418 13.9956 173.433 14.0022C173.444 14.0087 173.455 14.0131 173.47 14.0174C173.658 14.1026 174.016 14.238 174.563 14.3646H174.69C175.237 14.3646 175.661 14.4563 175.96 14.6462C175.992 14.6637 176.023 14.6834 176.051 14.7074C176.296 14.893 176.444 15.1419 176.488 15.4585C176.492 15.4825 176.496 15.5065 176.499 15.5305C176.505 15.5807 176.507 15.6331 176.507 15.6855C176.507 15.7554 176.503 15.8253 176.494 15.8908C176.481 15.9978 176.457 16.0982 176.427 16.1921C176.331 16.4825 176.145 16.7292 175.87 16.9344C175.822 16.9715 175.772 17.0043 175.722 17.0349C175.672 17.0654 175.621 17.0938 175.569 17.12C175.558 17.1266 175.547 17.1331 175.536 17.1353C175.501 17.1528 175.467 17.168 175.427 17.1811C175.403 17.1942 175.379 17.203 175.355 17.2117C175.303 17.2314 175.251 17.2488 175.196 17.2663C174.635 17.4519 173.959 17.5458 173.483 17.7554C173.451 17.7685 173.42 17.7859 173.392 17.799C173.335 17.8274 173.278 17.858 173.224 17.8885C172.781 18.1287 172.379 18.4213 172.019 18.7684C171.974 18.8121 171.93 18.858 171.884 18.9016C171.795 18.9911 171.712 19.085 171.629 19.1811C171.463 19.3732 171.31 19.5807 171.166 19.8012C170.99 20.0697 170.841 20.3579 170.721 20.668C170.837 20.9715 170.979 21.2597 171.145 21.5282C171.705 22.4365 172.438 23.1177 173.346 23.574C173.64 23.7203 173.946 23.8491 174.258 23.9583C174.406 24.0107 174.555 24.0587 174.707 24.1002V24.8011L172.163 24.2094H170.71V25.4452C170.944 26.0347 171.273 26.5543 171.703 27.0041C171.786 27.0914 171.869 27.1744 171.961 27.2552C173.067 28.2552 174.631 28.7552 176.66 28.7552H193.915V22.2116H177.93C177.325 22.2116 176.872 22.0981 176.568 21.8688C176.267 21.6418 176.115 21.3164 176.115 20.8907C176.115 20.8208 176.119 20.7509 176.128 20.6854C176.119 20.6199 176.115 20.5501 176.115 20.4824C176.115 20.0588 176.267 19.7313 176.568 19.5042C176.872 19.2772 177.325 19.1615 177.93 19.1615H193.915V12.6179H177.93C177.325 12.6179 176.872 12.5044 176.568 12.2773C176.267 12.0502 176.115 11.7249 176.115 11.2991C176.115 11.2293 176.119 11.1594 176.128 11.0939C176.119 11.0284 176.115 10.9585 176.115 10.8887C176.115 10.4673 176.267 10.1376 176.568 9.91052C176.872 9.68345 177.325 9.56992 177.93 9.56992H193.915V3.02637H176.66C174.631 3.02637 173.065 3.52417 171.961 4.52634L171.963 4.52853Z" fill="white"/>
<path d="M171.963 4.52853C171.406 5.0307 170.99 5.63549 170.713 6.34072V7.57432H172.166L174.71 6.98263V7.68131C174.561 7.72279 174.413 7.77082 174.267 7.82104C173.95 7.93021 173.643 8.06121 173.346 8.20968C172.438 8.66382 171.705 9.34503 171.145 10.2555C170.979 10.524 170.837 10.8123 170.721 11.1157C170.841 11.4236 170.99 11.714 171.166 11.9825C171.74 12.8603 172.482 13.5262 173.392 13.9825C173.405 13.9891 173.418 13.9956 173.433 14.0022C173.444 14.0087 173.455 14.0131 173.47 14.0174C173.658 14.1026 174.016 14.238 174.563 14.3646C175.048 14.4781 175.656 14.4781 175.96 14.6462C175.995 14.6615 176.025 14.6834 176.051 14.7074C176.28 14.9126 176.437 15.1506 176.488 15.4585C176.492 15.4825 176.496 15.5065 176.499 15.5305C176.505 15.5807 176.507 15.6331 176.507 15.6855C176.507 15.7554 176.503 15.8253 176.494 15.8908C176.481 15.9978 176.457 16.0982 176.427 16.1921C176.326 16.4781 176.134 16.7183 175.87 16.9344C175.824 16.9715 175.774 17.0065 175.722 17.0349C175.674 17.0676 175.624 17.096 175.569 17.12C175.558 17.1266 175.547 17.1331 175.536 17.1353C175.501 17.1528 175.467 17.168 175.427 17.1811C175.403 17.1942 175.379 17.203 175.355 17.2117C175.303 17.2314 175.251 17.2488 175.196 17.2663C174.635 17.4519 173.959 17.5458 173.483 17.7554C173.451 17.7685 173.42 17.7859 173.392 17.799C173.335 17.8274 173.278 17.858 173.224 17.8885C172.781 18.1309 172.379 18.4257 172.019 18.7684C171.974 18.8121 171.93 18.858 171.884 18.9016C171.797 18.9911 171.712 19.085 171.629 19.1811C171.463 19.3732 171.31 19.5807 171.166 19.8012C170.99 20.0697 170.841 20.3579 170.721 20.668C170.444 21.3688 170.305 22.1701 170.305 23.074C170.305 23.3819 170.32 23.6745 170.355 23.9583C170.416 24.4954 170.536 24.9889 170.713 25.4452C170.946 26.0347 171.276 26.5543 171.705 27.0041C171.788 27.0914 171.871 27.1744 171.963 27.2552C173.069 28.2552 174.633 28.7552 176.662 28.7552H193.917V22.2116H177.932C177.328 22.2116 176.874 22.0981 176.571 21.8688C176.269 21.6418 176.117 21.3164 176.117 20.8907C176.117 20.8208 176.121 20.7509 176.13 20.6854C176.121 20.6199 176.117 20.5501 176.117 20.4824C176.117 20.0588 176.269 19.7313 176.571 19.5042C176.874 19.2772 177.328 19.1615 177.932 19.1615H193.917V12.6179H177.932C177.328 12.6179 176.874 12.5044 176.571 12.2773C176.269 12.0502 176.117 11.7249 176.117 11.2991C176.117 11.2293 176.121 11.1594 176.13 11.0939C176.121 11.0284 176.117 10.9585 176.117 10.8887C176.117 10.4673 176.269 10.1376 176.571 9.91052C176.874 9.68345 177.328 9.56992 177.932 9.56992H193.917V3.02637H176.662C174.633 3.02637 173.067 3.52417 171.963 4.52634V4.52853Z" fill="white"/>
<path d="M174.17 14.2638C174.17 14.2638 174.897 14.4559 175.263 14.5455C175.796 14.6743 176.544 14.9101 176.511 15.7791C176.454 17.2528 177.702 15.4843 177.702 15.4843L176.005 13.6328L174.168 14.2638H174.17Z" fill="white"/>
<path d="M225.735 28.7201L236.085 2.96289H244.689L255 28.7201H247.558L245.154 22.6307H235.463L233.098 28.7201H225.732H225.735ZM237.867 16.4212H242.789L240.269 10.4475L237.865 16.4212H237.867Z" fill="white"/>
<path d="M45.9224 7.87096H28.1416V2.8252H45.9224V7.87096ZM39.8333 9.36657V28.9929H34.2307V9.36657H39.8333Z" fill="white"/>
<path d="M122.763 14.6567C130.162 16.3903 134.601 17.22 134.601 22.0256C134.601 26.8312 130.559 28.8879 124.714 28.8879C119.626 28.8879 116.016 27.1172 113.742 24.1216L116.413 21.34C117.785 23.543 120.418 25.2766 125.508 25.2766C130.127 25.2766 132.834 23.8684 132.834 21.5562C132.834 18.7746 129.117 18.1261 124.786 17.006C119.48 15.6327 114.464 14.803 114.464 10.0716C114.464 5.88177 118.507 2.95605 124.064 2.95605C128.61 2.95605 131.787 4.90581 133.916 7.68742L131.246 10.504C129.874 8.26382 127.24 6.56735 123.163 6.56735C119.085 6.56735 116.271 8.44504 116.271 10.576C116.271 13.0672 119.951 13.9711 122.768 14.6567H122.763Z" fill="white"/>
<path d="M221.55 11.4284C221.55 16.3781 218.612 19.5811 213.404 20.2492C215.189 22.5199 219.17 27.3211 221.996 28.9586H215.3C215.597 27.6923 213.701 23.8954 211.432 20.3977H205.109C205.221 24.009 205.594 27.3954 207.119 28.9215H201.167C203.251 26.8364 203.213 21.0308 203.213 15.9305C203.213 10.8301 203.028 4.80187 201.167 2.93945H208.308C216.565 2.93945 221.548 5.02457 221.548 11.4262L221.55 11.4284ZM205.111 16.6772H208.905C215.453 16.6772 220.063 15.5986 220.063 11.5769C220.063 8.15333 216.716 6.66428 211.397 6.66428H205.111L205.074 6.51581V16.8257L205.111 16.6772Z" fill="white"/>
</svg>
