<svg width="202" height="64" viewBox="0 0 202 64" fill="none" xmlns="http://www.w3.org/2000/svg">
<path d="M34.0286 60.0583C32.7168 56.3252 31.7693 52.9646 31.1944 49.9684L28.1172 33.3516C27.7042 31.1733 26.7325 29.5375 25.1939 28.4281C23.6553 27.3187 21.8818 26.7681 19.8736 26.7681C18.5212 26.7681 17.1284 27.0758 15.687 27.6912V27.5697C16.3429 26.9948 17.1041 26.4117 17.9625 25.8125C18.8209 25.2214 19.7602 24.614 20.7643 23.9986C21.7685 23.3831 22.392 23.0106 22.643 22.8892C24.3679 21.9498 25.7121 21.1319 26.6758 20.4598C27.6394 19.7796 28.4411 19.0022 29.0727 18.1195C29.7125 17.2369 30.0283 16.2246 30.0283 15.0748C30.0283 13.0665 29.2914 11.6089 27.8095 10.71C26.3357 9.80305 24.6675 9.35767 22.8293 9.35767H0.244385V9.47913C0.697865 10.872 1.00558 12.5401 1.16754 14.4674C1.3295 16.3947 1.41048 18.8564 1.41048 21.8527V49.7902C1.41048 52.7865 1.3295 55.2482 1.16754 57.1755C1.00558 59.1028 0.697865 60.7628 0.244385 62.1557V62.2771H10.642V62.1557C9.86463 59.532 9.46784 55.4102 9.46784 49.7902V41.3604C9.54882 38.8177 9.96991 36.5907 10.7311 34.6797C11.4923 32.7686 12.3993 31.319 13.4682 30.3149C14.5371 29.3108 15.5817 28.8087 16.6101 28.8087C17.5576 28.8087 18.3998 29.2055 19.1367 30.0072C19.8736 30.8089 20.3918 31.9912 20.6753 33.546L25.534 62.2852H34.7088V62.1638C34.6279 61.9208 34.4011 61.2244 34.0286 60.0745V60.0583ZM12.464 29.7157C11.3384 31.068 10.3991 32.6471 9.66219 34.4529H9.47594L9.41115 10.4509H16.5535C20.4485 10.4509 22.4001 12.4591 22.4001 16.4838C22.4001 18.0062 21.9547 19.3666 21.0802 20.5813C20.1975 21.7879 18.8128 23.2779 16.926 25.0432C15.0797 26.8085 13.5896 28.3633 12.464 29.7238V29.7157Z" fill="white"/>
<path d="M100.617 9.34131L87.1425 62.2689H80.8019V62.1474C81.0043 61.451 81.1096 60.7708 81.1096 60.1149C81.1096 59.216 80.9962 58.2361 80.7695 57.1915C80.5428 56.1469 80.1865 54.7784 79.6925 53.1021C79.1175 50.8833 78.8503 49.9035 78.8908 50.1464L71.6918 21.4638C71.0764 19.0425 70.0884 16.1921 68.7361 12.9125C68.5741 12.4995 68.3474 11.9488 68.0559 11.2524C67.7724 10.556 67.5619 9.95675 67.4404 9.47087V9.34941H77.8381V9.47087C77.6356 10.1673 77.5304 10.8475 77.5304 11.5034C77.5304 12.2808 77.6113 13.0906 77.7733 13.9328C77.9352 14.775 78.1296 15.6252 78.3563 16.4836C78.5831 17.342 78.7369 17.9169 78.8179 18.2085L79.6763 21.4719L88.0495 55.1995L95.5562 25.1645C96.3336 22.2493 96.7223 19.3584 96.7223 16.4836C96.7223 13.3255 96.1473 10.9447 94.9974 9.34131H100.601H100.617Z" fill="white"/>
<path d="M131.64 9.34131V15.0017C130.369 14.1028 128.692 13.3012 126.627 12.6047C124.554 11.9083 122.473 11.3739 120.384 11.0014C118.295 10.6289 116.627 10.4507 115.396 10.4507H113.614V19.4393C113.614 22.0225 114.278 23.9417 115.614 25.1969C116.95 26.4521 118.651 27.2619 120.724 27.6263C122.797 27.9988 125.429 28.1769 128.636 28.1769V34.4528C126.627 33.1814 123.178 31.1731 118.295 28.4198C117.388 28.4198 116.61 28.76 115.954 29.4321C115.299 30.1123 114.74 31.6995 114.294 34.2017C113.841 36.704 113.614 40.518 113.614 45.6521V61.1595H115.396C116.627 61.1595 118.287 60.9732 120.384 60.6088C122.473 60.2363 124.554 59.71 126.627 59.0054C128.7 58.309 130.369 57.5073 131.64 56.6085V62.2689H104.375V62.1474C104.828 60.7546 105.136 59.0945 105.298 57.1591C105.46 55.2318 105.541 52.7701 105.541 49.7739V46.883C105.541 43.1903 106.051 39.9917 107.079 37.2789C108.108 34.5742 109.428 32.4364 111.047 30.8816C112.667 29.3268 114.359 28.2579 116.125 27.6829C112.675 26.4521 110.051 24.8082 108.245 22.7595C106.439 20.7107 105.541 18.5162 105.541 16.1759V16.8561C105.541 15.0503 105.46 13.5603 105.298 12.3942C105.136 11.2281 104.828 10.2321 104.375 9.40609V9.34131H131.64Z" fill="white"/>
<path d="M136.313 62.2689V62.1474C136.766 60.7546 137.074 59.0945 137.236 57.1591C137.398 55.2318 137.479 52.7701 137.479 49.7739V21.8363C137.479 18.8401 137.398 16.3783 137.236 14.4511C137.074 12.5238 136.766 10.8637 136.313 9.46278V9.34131H146.71V9.46278C145.933 12.0865 145.544 16.2164 145.544 21.8363V61.2243H147.326C148.556 61.2243 150.217 61.038 152.314 60.6736C154.403 60.3011 156.484 59.7747 158.557 59.0702C160.63 58.3738 162.299 57.5721 163.57 56.6733V62.277H136.304L136.313 62.2689Z" fill="white"/>
<path d="M199.767 20.8567C198.31 16.7511 196.204 13.6334 193.459 11.5037C192.447 10.7182 191.362 10.0784 190.212 9.57636C190.034 9.50348 189.823 9.50348 189.653 9.60066C189.143 9.86789 188.665 10.1837 188.212 10.5319C187.904 10.7667 187.888 11.2283 188.163 11.5037C189.289 12.5888 190.244 14.1598 191.03 16.2166C192.69 20.5813 193.524 27.0758 193.524 35.6919C193.524 44.3081 192.69 51.0536 191.03 55.4426C189.37 59.8316 186.916 62.0262 183.677 62.0262C180.64 62.0262 178.235 59.7912 176.478 55.3211C174.713 50.8511 173.83 44.3081 173.83 35.6919C173.83 30.0315 174.235 25.2457 175.061 21.3506C175.879 17.4556 177.029 14.5323 178.502 12.5807C178.761 12.2406 179.029 11.9247 179.304 11.6494C179.579 11.3741 179.563 10.9287 179.264 10.6858C178.778 10.2809 178.243 9.93267 177.676 9.62495C177.506 9.53587 177.296 9.52778 177.118 9.60066C175.984 10.0946 174.923 10.7263 173.919 11.4956C171.149 13.6253 169.028 16.7592 167.546 20.881C166.072 25.0028 165.335 29.9344 165.335 35.6838C165.335 41.4333 166.072 46.4297 167.546 50.5758C169.02 54.7219 171.149 57.872 173.919 60.026C176.688 62.18 179.944 63.257 183.677 63.257C187.41 63.257 190.714 62.18 193.459 60.026C196.204 57.872 198.31 54.7219 199.767 50.5758C201.225 46.4297 201.954 41.4657 201.954 35.6838C201.954 29.902 201.225 24.9542 199.767 20.8486V20.8567Z" fill="white"/>
<path d="M65.2296 9.34131V15.0017C63.9582 14.1028 62.282 13.3012 60.217 12.6047C58.144 11.9083 56.0628 11.3739 53.9736 11.0014C51.8843 10.6289 50.2162 10.4507 48.9853 10.4507H47.2038V19.4393C47.2038 22.0225 47.8678 23.9417 49.2039 25.1969C50.5401 26.4521 52.2406 27.2619 54.3137 27.6263C56.3867 27.9988 59.0185 28.1769 62.2253 28.1769V34.4528C60.217 33.1814 56.7673 31.1731 51.8843 28.4198C50.9774 28.4198 50.2 28.76 49.544 29.4321C48.8881 30.1123 48.3294 31.6995 47.884 34.2017C47.4305 36.704 47.2038 40.518 47.2038 45.6521V61.1595H48.9853C50.2162 61.1595 51.8762 60.9732 53.9736 60.6088C56.0628 60.2363 58.144 59.71 60.217 59.0054C62.2901 58.309 63.9582 57.5073 65.2296 56.6085V62.2689H37.9641V62.1474C38.4176 60.7546 38.7253 59.0945 38.8873 57.1591C39.0492 55.2318 39.1302 52.7701 39.1302 49.7739V46.883C39.1302 43.1903 39.6404 39.9917 40.6688 37.2789C41.6972 34.5742 43.0172 32.4364 44.6367 30.8816C46.2563 29.3268 47.9488 28.2579 49.7141 27.6829C46.2644 26.4521 43.6407 24.8082 41.8349 22.7595C40.0291 20.7107 39.1302 18.5162 39.1302 16.1759V16.8561C39.1302 15.0503 39.0492 13.5603 38.8873 12.3942C38.7253 11.2281 38.4176 10.2321 37.9641 9.40609V9.34131H65.2296Z" fill="white"/>
<path d="M190.487 8.0863C189.831 8.32924 189.2 8.63696 188.617 8.99326C187.944 9.40625 187.313 9.88403 186.746 10.4266C185.572 11.5522 184.649 12.945 184.066 14.5079C183.993 14.7022 183.823 14.7994 183.644 14.7994C183.466 14.7994 183.296 14.7022 183.223 14.5079C182.665 12.9936 181.782 11.6413 180.656 10.5319C180.073 9.95691 179.417 9.44674 178.713 9.00946C178.114 8.63696 177.474 8.32924 176.81 8.0863C176.421 7.94054 176.421 7.38989 176.81 7.24413C179.782 6.14282 182.13 3.79444 183.231 0.822529C183.304 0.62818 183.474 0.531006 183.653 0.531006C183.831 0.531006 184.001 0.62818 184.074 0.822529C185.175 3.80254 187.523 6.14282 190.495 7.24413C190.884 7.38989 190.884 7.94054 190.495 8.0863H190.487Z" fill="white"/>
</svg>
