<svg width="62" height="62" viewBox="0 0 62 62" fill="none" xmlns="http://www.w3.org/2000/svg">
<path d="M37.1403 44.8322C36.5291 45.1063 35.9017 45.3459 35.2519 45.5389C35.8773 44.9764 36.4601 44.3692 37.0002 43.7235L36.6672 41.0939C35.4042 42.9905 33.7818 44.6028 31.8588 45.7947V38.6045C33.4609 38.6999 35.0164 39.0471 36.4804 39.6218L36.2327 37.6745C34.8295 37.2156 33.3635 36.9353 31.8588 36.8541V31.8549H39.6339C39.5689 33.2803 39.3476 34.6692 38.9841 35.9952L40.5253 37.2643C41.0715 35.5485 41.4005 33.7331 41.4796 31.8549H46.1012C45.9367 34.7362 44.9661 37.4044 43.4127 39.638L44.7631 40.7508C46.7205 37.9872 47.8759 34.6185 47.8759 30.9817C47.8759 26.6099 46.2109 22.6199 43.4798 19.6106L43.5001 19.5903L42.8767 18.9709C40.111 16.2195 36.5636 14.5443 32.7421 14.1402C32.7137 14.1382 32.6853 14.1321 32.6568 14.1301C32.4233 14.1077 32.1898 14.0894 31.9543 14.0773C31.9015 14.0732 31.8487 14.0691 31.7959 14.0651C31.6984 14.059 31.5989 14.059 31.4994 14.057C31.1197 14.0265 30.7298 14.0062 30.3278 14.0001C30.2059 13.9981 30.0902 14.0265 29.9806 14.0712C29.9602 14.0712 29.9399 14.0752 29.9196 14.0752C29.6841 14.0894 29.4506 14.1057 29.2171 14.128C29.1886 14.1301 29.1602 14.1361 29.1318 14.1382C25.3103 14.5423 21.7629 16.2175 18.9993 18.9669L18.3759 19.5862L18.3962 19.6065C15.6651 22.6158 14 26.6059 14 30.9797C14 35.3535 15.6651 39.3436 18.3962 42.3509L18.3759 42.3712L18.9993 42.9905C21.7629 45.7378 25.3103 47.4151 29.1318 47.8171C29.1602 47.8192 29.1886 47.8253 29.2171 47.8273C29.4506 47.8496 29.6841 47.8679 29.9196 47.8821C29.9399 47.8821 29.9602 47.8862 29.9806 47.8862C30.0882 47.9288 30.2019 47.9573 30.3176 47.9573H30.3298C30.7319 47.9512 31.1217 47.9309 31.5014 47.9004C31.6009 47.8963 31.6984 47.8963 31.7979 47.8923C31.8507 47.8902 31.9035 47.8842 31.9563 47.8801C32.1918 47.8659 32.4254 47.8496 32.6589 47.8253C32.6873 47.8232 32.7157 47.8171 32.7442 47.8151C34.3483 47.6466 35.9037 47.2506 37.3718 46.6455L37.1424 44.8302L37.1403 44.8322ZM46.0972 30.1045H41.4756C41.368 27.4648 40.7689 24.9408 39.7516 22.6564C40.6207 22.1244 41.4451 21.5132 42.2167 20.8228C44.4605 23.3123 45.8921 26.547 46.0951 30.1045H46.0972ZM40.974 19.5943C40.3425 20.1507 39.6704 20.6482 38.9678 21.0888C37.983 19.3263 36.7302 17.7465 35.2499 16.4185C37.3921 17.0541 39.3374 18.1506 40.972 19.5943H40.974ZM31.8568 16.1647C34.1432 17.5841 36.0134 19.5903 37.3474 21.968C35.6357 22.7661 33.7797 23.2392 31.8568 23.3529V16.1647ZM31.8568 25.1053C34.0539 24.9875 36.1758 24.4535 38.1272 23.5377C39.0064 25.554 39.5262 27.7795 39.6318 30.1045H31.8568V25.1053ZM26.6159 16.4205C25.1377 17.7485 23.8848 19.3242 22.9 21.0868C22.1994 20.6482 21.5273 20.1507 20.8978 19.5943C22.5304 18.1526 24.4757 17.0561 26.6159 16.4205ZM19.6531 20.8228C20.4227 21.5132 21.2471 22.1244 22.1141 22.6544C21.0989 24.9367 20.5039 27.4607 20.3943 30.1045H15.7747C15.9778 26.547 17.4093 23.3123 19.6531 20.8228ZM15.7747 31.8528H20.3963C20.5039 34.4966 21.1009 37.0206 22.1162 39.303C21.2491 39.835 20.4247 40.4442 19.6551 41.1346C17.4114 38.6451 15.9798 35.4104 15.7767 31.8528H15.7747ZM20.8978 42.3651C21.5273 41.8087 22.1994 41.3132 22.9 40.8726C23.8848 42.6331 25.1377 44.2109 26.6159 45.5389C24.4757 44.9033 22.5304 43.8068 20.8978 42.3651ZM30.0151 45.7947C27.7246 44.3753 25.8544 42.3712 24.5204 39.9913C26.2321 39.1913 28.0901 38.7182 30.0151 38.6045V45.7947ZM30.0151 36.8521C27.816 36.9699 25.692 37.5059 23.7406 38.4217C22.8634 36.4054 22.3456 34.1799 22.24 31.8508H30.0151V36.8501V36.8521ZM30.0151 30.1045H22.24C22.3436 27.7755 22.8634 25.55 23.7406 23.5356C25.692 24.4535 27.816 24.9875 30.0151 25.1053V30.1045ZM30.0151 23.3549C28.0901 23.2392 26.2321 22.7661 24.5204 21.968C25.8544 19.5882 27.7246 17.5841 30.0151 16.1647V23.3549Z" fill="black"/>
<path d="M45.817 43.1265L37.1973 36.0317L38.6024 47.1064L41.1406 45.7054L43.5103 50L45.6485 48.8223L43.2788 44.5276L45.817 43.1265Z" fill="black"/>
</svg>
