<svg width="138" height="63" viewBox="0 0 138 63" fill="none" xmlns="http://www.w3.org/2000/svg">
<path d="M67.7681 0.511094C52.8307 -1.47467 40.2503 11.1706 42.3421 26.1198C43.721 35.9602 51.6994 43.8561 61.5398 45.2054C66.7546 45.9184 71.6571 44.8165 75.7642 42.4772V48.464H87.225V23.4564C87.225 12.078 79.0404 2.00778 67.7622 0.511094H67.7681ZM69.7303 33.7387C60.4556 37.6336 51.5462 30.1148 52.8779 21.064C53.6498 15.8315 57.9925 11.6361 63.2427 11.0233C70.4551 10.1806 76.595 15.8197 76.595 22.8671V22.9142C76.595 27.5457 74.0023 31.9474 69.7303 33.7387Z" fill="white"/>
<path d="M138 2.56739V0.304688H135.743H113.04C101.874 0.304688 91.8859 8.14167 90.1358 19.1606C87.8967 33.2554 98.727 45.4174 112.398 45.4174C116.723 45.4174 120.741 44.18 124.177 42.0705V51.4277H97.8019V62.8886H99.6875H135.007V23.8333C135.007 23.739 134.972 23.6565 134.954 23.5681V22.861C134.954 18.8188 133.864 15.0417 131.996 11.7655H137.994V8.67788V2.56739H138ZM117.359 33.7798C108.744 37.3212 100.471 31.0398 100.471 22.8669C100.471 16.2909 105.822 10.9406 112.398 10.9406C118.974 10.9406 124.318 16.2909 124.318 22.8669V22.8787C124.318 22.9966 124.294 23.1144 124.294 23.2323C124.218 23.4208 124.171 23.6212 124.171 23.8392V24.7407C123.576 28.7005 121.101 32.2419 117.353 33.7857L117.359 33.7798Z" fill="white"/>
<path d="M0.175537 0.304688V11.7655H26.7682V48.4638H38.2291V11.7655V0.304688H26.7682H0.175537Z" fill="white"/>
<path d="M16.8983 23.1558H5.2666V34.7875H16.8983V23.1558Z" fill="white"/>
</svg>
